<svg xmlns="http://www.w3.org/2000/svg" xmlns:xlink="http://www.w3.org/1999/xlink" x="0px" y="0px" viewBox="0 0 841.9 396" style="enable-background:new 0 0 841.9 396;" xml:space="preserve">
<style type="text/css">
	.st0{fill:#D9272D;}
	.st1{fill:#FFFFFF;}
	.st2{fill:#DCDDDE;}
	.st3{fill:#B1B3B6;}
	.st4{fill:none;}
</style>
<g id="Camada_1">
	<path d="M134,275.9h234c0,0,12.8,29.1,58,29.1c0,0,40,1,58.7-29.1h272.8c0,0,27.1,0.4,30.9-27.6l15.4-126.6c0,0,3.8-17.1-5.3-27.4   c0,0-7.8-12.2-25-12.2l-616-0.6c0,0-14.4,0.3-26,11.4c0,0-8.8,7.3-17.2,26.9L61.1,242.3c0,0-10,23.1,11.6,40.9   C72.7,283.2,96.6,305,134,275.9"></path>
	<path class="st0" d="M419.8,298.6c-1,0-1.5,0-1.6,0c-44.1,0-62.3-34.3-62.4-34.6l-0.3-0.5H129.8l-0.3,0.3   c-13.6,12.7-27.4,19.2-41.2,19.2c0,0,0,0,0,0c-14.9,0-24.4-7.9-24.5-7.9c-20.8-17.1-9.4-43.4-9.3-43.7l53.1-122.6   c8.2-19,16.8-26.4,16.9-26.5C135.9,71.4,149.9,71,150.1,71L766,71.6c16.5,0,24.1,11.6,24.2,11.7c8.8,9.9,5.2,26.5,5.2,26.6   l-15.4,126.7c-3.5,26.5-28.8,26.8-29.8,26.8H481l-0.3,0.5C461.9,297,426.7,298.6,419.8,298.6"></path>
	<g>
		<path d="M174.4,323c-1.3-1.3-3-2.4-5-3.2c-2-0.7-4.3-1.1-6.9-1.1c-2.3,0-4.5,0.3-6.5,0.9c-2.1,0.6-4.1,1.6-5.9,2.9    c-0.4,0.3-0.7,0.5-1,0.8c-0.5-3.3-1.9-6.2-4.1-8.4c-2.9-2.9-7.1-4.4-12.4-4.4h-8.6c-3,0-5.5,0.8-7.5,2.5c-1.9,1.6-3.2,4-3.9,7.1    l-4.2,19.7c-0.2,1.1-0.4,2.2-0.4,3.1c0,6.1,4.9,8.3,9.1,8.3h8.6c3.1,0,6-0.5,8.6-1.5c2.6-1,4.9-2.4,6.9-4.3    c0.7-0.6,1.3-1.3,1.8-1.9c0.9,2.5,2.5,4.1,3.8,5.2c2.7,2.1,6.2,3.1,10.5,3.1c2.4,0,4.5-0.2,6.3-0.5c2-0.3,3.6-0.8,5.1-1.5    c1.6-0.7,2.8-1.6,3.8-2.7l0,0c1.1-1.2,1.8-2.5,2.1-3.9l0.2-0.5v-1c0-0.6-0.1-1.2-0.2-1.8c1.7-1.2,2.8-3,3.3-5.5l0-0.1    c0.1-0.7,0.2-1.5,0.2-2.4c0-1.5-0.3-3-0.8-4.5C176.7,325.9,175.7,324.4,174.4,323z"></path>
		<path d="M329.1,318.7c-1.3,0-3.2,0.3-5.1,1.6c-1-0.8-2.6-1.6-5-1.6c-2.2,0-4.2,0.7-5.9,2.1c-1.1,0.9-1.9,1.9-2.5,3.2    c-0.7-0.9-1.5-1.7-2.2-2.2c-2.7-2.1-6.2-3.1-10.5-3.1c-2.3,0-4.5,0.3-6.5,0.9c-2.1,0.6-4.1,1.6-5.9,2.9c-1.2,0.9-2.3,1.9-3.3,3.1    c-0.3-0.8-0.7-1.5-1.2-2.2c-1-1.5-2.4-2.6-4-3.5c-1.6-0.8-3.5-1.2-5.7-1.2c-0.4,0-0.8,0-1.2,0.1c0.1-0.5,0.1-0.9,0.1-1.4    c0-4.5-3.1-7.4-8-7.4c-2.5,0-4.6,0.7-6.3,2.1c-1.7,1.4-2.8,3.4-3.4,5.9l-0.9,4.4c-1-0.9-2.3-1.7-3.7-2.3c-1.4-0.5-2.9-0.9-4.5-1.1    c-1.4-0.2-2.9-0.3-4.3-0.3c-3.8,0-7.2,0.7-10,1.9c-1.6,0.7-2.9,1.6-4,2.6c-0.3,0.3-0.6,0.7-0.9,1c0.4-0.7,0.7-1.5,0.9-2.4    c0.2-0.7,0.2-1.4,0.2-2.1c0-2.2-0.8-4.2-2.3-5.7c-1.2-1.2-2.7-2.2-4.5-2.8c-1.5-0.5-3.1-0.9-4.8-1.2c-1.6-0.2-3.3-0.3-4.9-0.3    c-2.6,0-5,0.4-7.1,1.1c-2.2,0.7-4.1,1.7-5.7,3c-1.6,1.3-2.9,2.8-4,4.4c-1,1.6-1.7,3.4-2.1,5.3c-0.2,1-0.3,2-0.3,2.8    c0,1.6,0.3,4,1.9,6.2c-0.4,0.2-0.9,0.5-1.3,0.9c-1.8,1.4-2.9,3.3-3.4,5.5c-0.1,0.6-0.2,1.2-0.2,1.8c0,1.5,0.4,3,1.1,4.4    c0.7,1.4,1.9,2.6,3.4,3.7c1.4,1,3.2,1.8,5.4,2.3c2,0.5,4.3,0.8,6.9,0.8c2.1,0,4.2-0.3,6.2-0.8c2.1-0.5,4.1-1.4,5.9-2.5    c1.2-0.7,2.2-1.6,3.2-2.6c0.7,1.5,1.7,2.7,3.1,3.7c2,1.4,4.6,2,7.8,2c2.2,0,4.4-0.4,6.5-1.2c0.3-0.1,0.7-0.3,1-0.4    c1.4,1,3.1,1.6,5.3,1.6c2,0,3.8-0.5,5.4-1.4c0.5-0.3,0.9-0.6,1.3-0.9c1.3,1.5,3.4,2.4,5.9,2.4c1.9,0,3.6-0.5,5.1-1.5    c1.8,1,3.8,1.5,6,1.5c4.3,0,8.1-1.5,11.3-4.5c0.7-0.7,1.4-1.5,2-2.3c0.9,1.7,2.1,2.8,3.1,3.6c2.7,2.1,6.2,3.1,10.5,3.1    c2.3,0,4.5-0.3,6.5-0.9c2.1-0.6,4.1-1.6,5.9-2.9c0.5-0.4,1-0.8,1.5-1.2c0.4,1.3,1.2,2.3,2.2,3.2c1.5,1.2,3.3,1.8,5.5,1.8    c2.4,0,4.4-0.7,6.2-2c1.8-1.4,3-3.4,3.6-6l1.3-6.3c0.1-0.5,0.2-0.7,0.3-0.8c0.1-0.1,0.5-0.3,1.3-0.5l2.6-0.6c2-0.5,5.5-2,6.6-7.4    c0.2-0.7,0.2-1.4,0.2-2.2c0-1.9-0.6-3.7-1.8-5C333.8,320,332.1,318.7,329.1,318.7z M221.4,327.3c0.7-0.5,1.3-1.2,1.9-1.9    c-0.4,0.7-0.7,1.5-0.9,2.3c-0.1,0.6-0.2,1.1-0.2,1.7c0,0,0,0,0,0c-0.3-0.7-0.8-1.3-1.3-1.9C221.2,327.5,221.3,327.4,221.4,327.3z"></path>
		<path d="M372.6,320.1c-1.4-0.5-2.9-0.9-4.5-1.1c-1.4-0.2-2.9-0.3-4.3-0.3c-3.8,0-7.2,0.7-10,1.9c-1.6,0.7-2.9,1.6-4,2.6    c-1.3,1.3-2.2,2.8-2.6,4.6c-0.1,0.6-0.2,1.1-0.2,1.6c0,1,0.2,1.8,0.5,2.6c-1.2,0.8-2.2,1.8-2.9,2.9c-0.9,1.3-1.5,2.7-1.9,4.3    c-0.2,0.9-0.3,1.9-0.3,2.8c0,3.2,1.4,6,3.9,7.6c2,1.4,4.6,2,7.8,2c2.2,0,4.4-0.4,6.5-1.2c0.3-0.1,0.7-0.3,1-0.4    c1.4,1,3.1,1.6,5.3,1.6c2,0,3.8-0.5,5.4-1.4c2-1.2,3.3-3,3.8-5.2l0-0.2c0.1-0.4,0.2-1,0.3-1.9c0.1-1,0.2-1.6,0.3-1.9l2.2-10.3    c0.1-0.7,0.2-1.4,0.2-2.1c0-2.2-0.7-4.2-2.2-5.7C375.8,321.7,374.3,320.7,372.6,320.1z"></path>
		<path d="M534.7,323c-1.3-1.3-3-2.4-5-3.2c-2-0.7-4.3-1.1-6.9-1.1c-2.3,0-4.5,0.3-6.5,0.9c-1.9,0.6-3.8,1.4-5.4,2.6    c-0.7-1.1-1.8-2.1-3.3-2.5c0-0.1,0-0.3,0-0.4c0-4.5-3.1-7.4-8-7.4c-2.5,0-4.6,0.7-6.3,2.1c-1.6,1.3-2.7,3.2-3.3,5.6    c-1.5,0.3-2.7,1-3.7,2c-2-1.8-4.8-2.7-8.3-2.7c-2.4,0-4.7,0.5-6.7,1.6c-1-0.8-2.6-1.6-5-1.6c-4,0-7.1,1.9-8.7,5.2    c-0.2-0.3-0.5-0.6-0.8-0.9c-1.3-1.3-3-2.4-5-3.2c-2-0.8-4.3-1.1-6.9-1.1c-2.3,0-4.5,0.3-6.5,0.9c-2.1,0.6-4.1,1.6-5.9,2.9    c-1.8,1.3-3.4,3-4.7,5c-0.1,0.1-0.2,0.3-0.2,0.4c-0.2-0.2-0.3-0.4-0.5-0.6l-0.2-0.2c1.2-1.3,2-2.8,2.3-4.4    c0.1-0.6,0.2-1.2,0.2-1.8c0-1.4-0.3-2.8-1-4.1c-0.7-1.4-1.7-2.7-3.1-3.8c-1.3-1-3-1.8-5.1-2.4c-1.9-0.5-4.1-0.8-6.7-0.8    c-2.4,0-4.8,0.4-7.2,1.2c-2.4,0.8-4.8,2-7,3.6c-2.3,1.7-4.3,3.8-6,6.4c-1.7,2.6-2.9,5.6-3.6,9c-0.4,2.1-0.7,4-0.7,5.9    c0,2.7,0.5,5.2,1.4,7.3c1,2.2,2.4,4,4.2,5.3c1.6,1.2,3.5,2.2,5.5,2.7c4.1,1.1,8.6,1.1,13-0.6c0.2-0.1,0.4-0.2,0.7-0.3    c0.9,0.8,2.5,1.6,4.7,1.6c3.2,0,5.2-1.4,6.3-2.7c0.9-1,1.5-2.1,2-3.4c0.8,1.2,1.7,2.1,2.6,2.7c2.7,2.1,6.2,3.1,10.5,3.1    c2.4,0,4.5-0.2,6.3-0.5c2-0.3,3.6-0.8,5.1-1.5c1.2-0.6,2.2-1.2,3-1.9c0.4,0.8,1,1.5,1.7,2.1c1.5,1.2,3.3,1.8,5.5,1.8    c2.4,0,4.4-0.7,6.2-2c0.9-0.7,1.6-1.5,2.2-2.4c0.4,1,1.1,1.9,2,2.6c1.5,1.2,3.3,1.8,5.5,1.8c2.4,0,4.4-0.7,6.2-2    c1.3-1,2.2-2.2,2.9-3.8c1.7,4.2,6.1,5.8,10.2,5.8c3.3,0,5.7-0.5,7.4-1.5c1-0.6,1.9-1.3,2.5-2.2c0.3,0.2,0.5,0.4,0.8,0.6    c2.7,2.1,6.2,3.1,10.5,3.1c2.4,0,4.5-0.2,6.3-0.5c2-0.4,3.6-0.8,5.1-1.5c1.6-0.7,2.8-1.6,3.8-2.7c1.1-1.2,1.8-2.5,2.1-3.9l0.2-0.5    v-1c0-0.6-0.1-1.2-0.2-1.8c1.7-1.2,2.8-3,3.3-5.5l0-0.1c0.1-0.7,0.2-1.5,0.2-2.4c0-1.5-0.3-3-0.8-4.5    C537,325.9,536,324.4,534.7,323z"></path>
		<path d="M750.9,327.5c-0.6-1.6-1.5-3.1-2.8-4.5c-1.3-1.3-3-2.4-5-3.2c-2-0.7-4.3-1.1-6.9-1.1c-2.3,0-4.5,0.3-6.5,0.9    c-2.1,0.6-4.1,1.6-5.9,2.9c0,0,0,0,0,0l0.6-2.7c0.2-0.8,0.3-1.7,0.3-2.4c0-4.5-3.1-7.4-8-7.4c-2.5,0-4.6,0.7-6.3,2.1    c-1.7,1.4-2.8,3.4-3.4,5.9l-0.2,1.1c-0.9-0.2-1.9-0.3-2.9-0.3c-2.5,0-4.8,0.6-7,1.7c-2,1-3.7,2.4-5.1,4.1    c-0.1,0.1-0.2,0.2-0.3,0.3c-0.6-1.4-1.5-2.5-2.2-3.2c-2-1.9-4.9-2.9-8.5-2.9c-2.4,0-4.7,0.5-6.7,1.6c-1-0.8-2.6-1.6-5-1.6    c-4,0-7.1,1.9-8.7,5.2c-0.2-0.3-0.5-0.6-0.8-0.9c-1.3-1.3-3-2.4-5-3.2c-2-0.8-4.3-1.1-6.9-1.1c-2.3,0-4.5,0.3-6.5,0.9    c-1.9,0.6-3.8,1.4-5.4,2.6c-0.7-1.1-1.8-2.1-3.3-2.5c0-0.1,0-0.3,0-0.4c0-4.5-3.1-7.4-8-7.4c-2.5,0-4.6,0.7-6.3,2.1    c-1.6,1.3-2.7,3.2-3.3,5.6c-1.5,0.3-2.7,1-3.7,2c-2-1.8-4.8-2.7-8.3-2.7c-2.4,0-4.7,0.5-6.7,1.6c-1-0.8-2.6-1.6-5-1.6    c-1.2,0-2.3,0.2-3.3,0.5c0.1-0.5,0.2-1,0.2-1.5c0-2.2-0.9-4.2-2.6-5.5c-1.4-1.1-3.3-1.7-5.5-1.7h-16.2c-3,0-5.5,0.8-7.5,2.4    c-1.9,1.6-3.2,4-3.9,7.1l-4.2,19.7c-0.2,1.1-0.4,2.2-0.4,3.1c0,6.1,4.9,8.3,9.1,8.3h16.7c2.4,0,4.5-0.6,6.2-1.9    c0,0,0.1-0.1,0.1-0.1c0.2,0.3,0.5,0.5,0.8,0.7c1.5,1.2,3.3,1.8,5.5,1.8c2.4,0,4.4-0.7,6.2-2c0.9-0.7,1.6-1.5,2.2-2.4    c0.4,1,1.1,1.9,2,2.6c1.5,1.2,3.3,1.8,5.5,1.8c2.4,0,4.4-0.7,6.2-2c1.3-1,2.2-2.2,2.9-3.8c1.7,4.2,6.1,5.8,10.2,5.8    c3.3,0,5.7-0.5,7.4-1.5c1-0.6,1.9-1.3,2.5-2.2c0.3,0.2,0.5,0.4,0.8,0.6c2.7,2.1,6.2,3.1,10.5,3.1c2.4,0,4.5-0.2,6.3-0.5    c2-0.3,3.6-0.8,5.1-1.5c1.2-0.6,2.2-1.2,3-1.9c0.4,0.8,1,1.5,1.7,2.1c1.5,1.2,3.3,1.8,5.5,1.8c2.4,0,4.4-0.7,6.2-2    c0.9-0.7,1.6-1.5,2.2-2.4c0.4,1,1.1,1.9,2,2.6c1.5,1.2,3.3,1.8,5.5,1.8c2.4,0,4.4-0.7,6.2-2c1-0.8,1.9-1.8,2.5-2.9    c0.3,0.5,0.7,0.9,1.1,1.4c2.3,2.4,5.4,3.6,9.2,3.6c2.1,0,4.3-0.5,6.3-1.4c1,0.7,2.5,1.4,4.7,1.4c3.9,0,6.9-1.9,8.5-5.3    c0.7,0.9,1.5,1.6,2.2,2.2c2.7,2.1,6.2,3.1,10.5,3.1c2.4,0,4.5-0.2,6.3-0.5c2-0.4,3.6-0.8,5.1-1.5c1.6-0.7,2.8-1.6,3.8-2.7    c1.1-1.2,1.8-2.5,2.1-3.9l0.2-0.5v-1c0-0.6-0.1-1.2-0.2-1.8c1.7-1.2,2.8-3,3.3-5.5l0-0.1c0.1-0.7,0.2-1.5,0.2-2.4    C751.7,330.5,751.4,329,750.9,327.5z"></path>
	</g>
	<path class="st1" d="M573.4,200.6c0,4.5-9.3,13.3-27,14.5c-0.7,0-19.8-0.2-20.8-17.8l0-0.1l0-0.3c0.1-1.4,0.3-4.7,0.6-7.3   c0.3-2,2.2-16.1,5.4-40.7l0.3-2.2c0-0.2,0.2-2.1,0.2-3.3c0-0.5,0-0.8-0.1-1c-0.2-1-1-1.5-2-1.5c-0.6,0-1.1,0.2-1.6,0.3   c-1.4,0.5-5.3,2.6-10.1,7.1c-0.4,0.3-0.9,0.9-1.1,2.7c-0.2,1.2-2.7,22.3-4.8,39.8l-0.2,1.9c0,0.9,0.3,1.7,0.7,2.2   c0.7,0.9,2,1.4,3.6,1.4l0.7,0c4,0,5.3,0.9,5.4,3.8c0,0.1,0,0.1,0,0.2c0,0,0,0.1,0,0.3c0,0.8-0.4,4.9-8.4,9.3   c-0.1,0.1-7.6,4.5-18.9,5.1c-1.9,0-18.9-0.5-20.4-17.6l0-0.1l0-0.2c0.2-3.2,0.4-5,0.5-6c0.4-2.7,6.5-50.3,6.6-50.7   c0.1-0.5,0.2-1.1,0.2-1.7c0-0.9-0.2-2.3-1-3.5c-1-1.3-2.5-2-4.5-2c-0.2,0-4-0.1-4.4-3c0-0.1,0-0.2-0.1-0.2   c-0.4-1.2-1.2-1.3-1.5-1.3c-0.4,0-1.3,0.2-1.5,1.5c-0.1,0.8-0.7,2.8-3.5,3c-0.5,0-2,0.1-2.3,1.3c0,0.1-0.1,0.3-0.1,0.4   c0,0.3,0.1,0.8,0.7,1.3l0.1,0.1c0.6,0.7,5.6,8.8,5.6,18.9l0,0.6c-0.2,10.8-4.4,21-11.4,28c-6.8,6.7-12.2,12-26,16.1   c-1.3,0.4-1.5,1.3-1.5,1.6c0,0.5,0.3,1.3,1.5,1.5l0.3,0c4.4,0.7,19.6,3.7,31.3,15.2c10.9,10.7,11.8,21.7,11.8,24.8   c0,0.5,0,0.8,0,0.9l0,0.7c0,3.3-1,20.5-21.4,32.4c-1.5,1-14.2,9.1-36,9.4c-0.1,0-0.5,0-1.1,0c-4.6,0-28.5-0.8-44.7-16.6   c-1.3-1.1-11.7-10.2-11.8-26.3c0.1-1.4,0.7-9,3.5-14.2c3.7-7.2,10.9-15.2,14.9-15.4c0.2,0,2.4,0.1,3.6,1.4c0.6,0.6,0.9,1.4,0.9,2.5   l0,0.4c0,0.1,0,0.2,0,0.3c0,0.7-0.3,2.1-2.5,4.4c-0.3,0.3-3.1,3.5-3.1,11.6c0,9,5.8,17,15.6,21.6c0.6,0.3,6.7,3.3,15.1,3.3   c0.7,0,1.5,0,2.2-0.1c9.5-0.6,15.9-2,22.5-7.6c5.9-5,6.7-9.6,6.7-13.1c0-0.4,0-0.8,0-1.3c0-0.6-1.1-14.7-26.8-18.6   c-0.7-0.1-2.3-0.2-3.5-0.3c-5.1-0.6-7.6-3-8.9-5c-2.2-3.5-3.2-6.4-3.2-9.6c0-0.8,0.1-1.7,0.2-2.6l0.1-0.2c0.1-0.2,0.2-0.6,0.2-1   c0-0.2,0-0.4-0.1-0.5c-0.2-0.7-0.6-1.2-1.2-1.5l-0.3-0.1c-4.9-2.1-16.7-8.3-21.1-21.8c-1.3-4.1-2-8.1-2-12.2   c0-10.1,4.2-18.3,7.8-23.3c2.7-3.8,12.8-16.7,30.6-20.9c0.7-0.2,6.4-1.8,14.9-2.1h0.2c1.5,0,9.6,0.2,18,3.5l0.1,0.1   c0.1,0,0.1,0.1,0.2,0.1c0.2,0.1,0.4,0.1,0.6,0.1c0.4,0,0.8-0.1,1.1-0.3c0.7-0.3,6.9-2.2,12.4-2.2h0.4c5.6,0.1,9.6,1.7,9.7,3.8   c0,0.2,0.1,0.3,0.1,0.5c0.4,1,1.1,1.1,1.4,1.1c0.4,0,1.4-0.2,1.5-1.6c0-0.6,0.9-2.4,4.1-3.4c2.3-0.7,8.3-2.4,12.9-2.4h0.2   c4.3,0.1,16.8,1.8,22.7,8.9c0.1,0.2,0.6,0.9,1.6,0.9c0.5,0,1-0.2,1.5-0.5c1.1-0.9,11.6-8.4,29.9-9.3c1.3,0,13.8,0.3,20.3,7.9   c0,0,3.5,4.3,3.5,9.3c0,0,0,0.3,0,0.5c-0.3,5.7-1.4,13.3-1.4,13.6l-5.3,42.8c0,0.1-0.1,0.6-0.1,1.3c0,1.2,0.3,2.2,0.9,3   c0.5,0.6,1.4,1.4,3,1.4c0.1,0,0.3,0,0.4,0c0.4,0,0.8,0,1.3,0C572.8,196.4,573.4,198.5,573.4,200.6 M410.1,165c0,4.6,1,8.8,3,12.5   c0.2,0.3,2,3.6,5.5,3.6c3.4,0,10.3-3.9,14.1-18.5c0.1-0.4,0.8-3.4,0.8-7.2l0-0.9c0-2.5-0.4-14.9-8.3-15.9c-1.5,0-5.1,0.7-9.3,6.9   C413.3,149.5,410.1,157,410.1,165"></path>
	<path class="st1" d="M762.9,188c0,0.3,0,0.7,0,1c-0.9,8.4-6.8,15.3-17.5,20.5c-13,6.3-20.7,7.1-27.1,7.1c-2.3,0-4.6-0.1-7.4-0.3   c-9.8-0.7-24.4-4.7-35.1-12.2c-0.2-0.2-0.6-0.5-1.2-0.5c-0.6,0-1.2,0.4-1.5,1c0,0-6.8,9.5-25.4,10.5c-0.1,0-0.5,0-1,0   c-2.7,0-9.7-0.7-15.4-6.9c-0.3-0.6-0.9-1-1.5-1c-0.4,0-0.9,0.2-1.3,0.5c-0.1,0-10.2,7.4-28.2,8.1l-0.5,0c-3.3,0-19.6-0.7-22.8-14.6   c0.2-0.2,0.3-0.5,0.3-0.9v-0.1c0-0.4-0.2-0.8-0.6-1c0-0.4,0-0.9,0-1.5c0-1.4,0.1-2.5,0.2-3.4c0.4-2.6,6.7-54,6.8-54.4   c0.1-0.3,0.1-0.8,0.1-1.2c0-0.8-0.1-2-0.8-3.1c-0.7-1.2-1.9-2-3.5-2.4c-4.1-0.9-4.2-3.1-4.2-4.1c0-1.1,0.5-2.8,4.4-5.4   c3.1-2,11.3-5.9,20.4-6.2c0.8,0,20.1,0.2,20.6,18.3c0,0.5-0.1,3.6-0.7,7c-0.6,3.8-5.8,42.6-5.8,43c-0.2,0.9-0.3,1.8-0.3,2.7   c0,1.1,0.2,1.9,0.6,2.5c0.4,0.5,0.9,0.7,1.5,0.7c0.2,0,0.4,0,0.6-0.1c1.8-0.5,5.2-1.5,11.3-7.5c0.2-0.2,1-1.2,1-2.6   c0.1-1.1,2.8-23.3,5.2-41.9l0-0.2c0-0.2,0.1-0.4,0.1-0.7c0-2.1-1.1-4.7-4.1-5.4c-3.3-0.8-3.9-1.1-4.3-4.3c0-0.2,0.1-2.5,3.3-4.6   c3-1.9,11.1-6.5,21.1-6.8l0.6,0c4.7,0,11.2,1.7,15.7,6.3c3.1,3.2,4.6,7.2,4.6,12l0,0.6c-0.2,2.8-0.3,3.9-0.4,4.3   c-0.2,1.1-6,46.5-6.2,48.6c-0.1,0.6-0.2,1.3-0.2,2c0,1,0.2,2.5,1,3.5c0.7,0.9,1.8,1.4,3.1,1.4c0.1,0,0.2,0,0.4,0c0.1,0,0.4,0,0.9,0   c1.2,0,2.2,0.2,2.8,0.4c0.1,0.1,0.3,0.1,0.5,0.1c1.2,0,2-0.7,2.2-1.9c0.3-2.5,1.7-3.8,4.2-4c0.4,0,1.5,0.2,1.8,0.4   c0.6,0.3,5.2,3,7.4,3.9c5.8,2.4,10.1,2.9,12.6,2.9c0.3,0,0.6,0,0.9,0c5.9-0.2,7.7-1.8,9.2-3.5c1.4-1.6,2.1-2.7,2.1-4.2   c0-1.8-0.8-4.8-4.7-8.8c-2.4-2.5-6.5-5.6-10.5-8.6c-2.8-2.1-5.3-4.1-7.1-5.6l-0.2-0.1c-4.2-3.7-12.8-11.3-13.1-22.4l0-0.4   c0-11.3,12.7-20.3,18.9-22.9c2.7-1.1,12.6-4.8,27.7-4.8c3.6,0,7.4,0.2,11,0.7c0.2,0,16,1.8,26.1,9.4c0.2,0.1,1.2,0.7,1.2,2.7   c0,0.3,0,0.6-0.1,1c-0.5,3.6-1.1,5.5-1.2,5.6c-0.1,0.3-0.7,2.4-3.5,2.4c-0.7,0-1.5-0.1-2.4-0.4c-1.2-0.6-3.2-1.6-4.1-2.1   c-1.4-0.8-7.4-2.9-12.7-2.9c-0.5,0-1,0-1.5,0.1c-6.4,0.5-10.4,3.1-11.9,7.7c-0.1,0.1-0.1,0.2-0.1,0.4v0c0,0.7,0.2,2.6,2.2,5.2   c2.2,2.9,8.5,8.8,15.7,13.8c7.1,5,15.8,13.6,18.1,20.6C761.5,181.2,762.9,184.8,762.9,188"></path>
	<path class="st1" d="M291.1,88.8c0,0.7-0.1,1.3-0.3,1.5c-0.1,0.1-0.1,0.2-0.2,0.3c-0.9,1.1-3,3.8-3.5,7.8c-0.3,2.4-3.5,31-9,80.4   l-4.7,42.5c-0.1,0.4-0.3,2.8-0.3,4.3l0,0.4c0.1,2.8,2,6.9,6.7,7c0,0,0.1,0,0.1,0c0.7,0,2.5-0.2,3.7-0.6h0.1c1.5,0,4,0.6,4.2,4.5   c0,0.2-0.1,7.1-5.3,11.4c-5.3,4.4-10,8.2-24.5,8.9c0,0-0.2,0-0.4,0c-2.2,0-13.7-0.5-21.8-10.4c-0.1-0.1-5-5.5-5.5-14.7   c0.1-1.1,0.9-7.4,1.2-10.1c0.4-3,1.9-19,2.3-23.4c0.3-3.7,1.9-18.6,2.6-24.8c0,0,0-0.1,0-0.1c0-0.6-0.4-1.2-1-1.3   c-0.6-0.2-1.3,0.1-1.5,0.7l-17.5,41c-0.7,2.2-1.8,5-2.6,6.3c-1.7,2.7-6.6,9.4-14.3,12.4c-3.8,1.5-7.5,2.2-11.2,2.2   c-4.9,0-9.6-1.3-14.1-3.9c-8.2-4.8-11.1-13.8-11.4-17.9c-0.1-1.4-0.2-2.8-0.2-4.2c0-2.1,0.1-4.3,0.4-6.5c0.2-2,1.9-16,2.7-23.1   l0.5-4v-0.2c0-0.6-0.4-1.1-0.9-1.3c-0.6-0.2-1.3,0.2-1.5,0.8l-27.2,64c-0.1,0.3-3.5,8.2-8,13.6c-5,5.9-12.3,14.6-27.1,18.2   c-5.5,1.3-9.9,2-13.8,2c-9.7,0-17.2-4-23.7-12.6c0,0-3.6-5-3.6-11.6c0.1-8.7,5.2-19.9,19.6-23.7c0,0,0,0,0,0h0.1   c0.5,0,1.9,0.1,3,1.3c0.3,0.3,1,1.4,1,2.4c0,0.1,0,0.3,0,0.4l-0.2,1c-0.3,1.2-0.4,1.7-0.8,2.4c-0.3,0.6-0.6,2-0.6,3.5   c0,2,0.6,3.7,1.7,4.7c2.3,2.1,5.7,3.3,9.4,3.3c0.2,0,0.5,0,0.7,0c5.4-0.2,12.1-2,20.6-13.6c0.1-0.2,3.2-4.4,7.2-13.9   c3.3-7.9,9.1-21.7,11.5-27.3l30.1-70.9l5.3-12.3c0.5-1,5.4-10.3,11.3-15.1c6.3-5.2,11.5-5.8,13.4-5.9h23.9c0.3,0,4.2,0.4,4.2,4.1   c0,0.4-0.1,1.6-0.7,2.3c-0.9,1.2-3.1,4.2-3.4,7.3c-0.2,1.4-1.3,10.3-3.2,25.6l-5.7,44.3c0,0.1,0,0.1,0,0.2c0,0.6,0.4,1.1,0.9,1.3   c0.6,0.2,1.3-0.1,1.5-0.7l3.5-7.9l14.5-34.2l7.9-18.2c0.1-0.3,9-22.5,24.9-24l25.1,0.1c1.1,0,3.8,0.4,4.1,4.3V88.8z"></path>
	<path class="st1" d="M376.8,199.7c0,0-0.2,5.3-9.4,9.7c-8.7,4.2-13.9,4.6-17,4.6c-0.4,0-0.7,0-1.1,0c-4.5-0.1-8.4-1.1-11.5-3   c-0.4-0.2-0.8-0.2-1.2-0.1c0,0-0.1,0.1-0.2,0.1c-1.5,0.9-9.8,5.6-21.5,5.7l-0.5,0c-2.2,0-13.8-0.3-23-6.9   c-0.5-0.3-10.1-6.4-10.6-19.7c0-0.3,0-0.5,0-0.8c0-12.9,11.5-24,17.1-27.4c0.8-0.4,1.5-1,2.4-1.5c5.3-3.5,13.4-8.8,33.8-12.3   c0.5-0.1,0.9-0.5,1-1c0-0.1,0.1-0.3,0.1-0.4c0-0.5-0.1-2.2-1.5-3.8c-1.8-2-4.8-3.1-9.1-3.2c-1.2,0-6.4,0.2-10.5,3.4   c-0.5,0.4-1.9,1.6-2.7,2.6c-0.1,0.1-0.2,0.3-0.3,0.4c-0.6,0.8-0.9,1.4-3.2,1.5h-0.2c-1,0-1.9-0.4-2.6-1.2c-0.8-0.9-1.3-2.1-1.3-3.3   V143c0.2-2.7,1.4-9.4,1.8-10.6c0.3-0.9,3.5-4.3,7.6-6.8l0.5-0.3c4.1-2.5,9.7-6,24.6-6.9c0.7,0,18.1,0.1,28.7,10.4   c0.2,0.2,5.2,5,5.2,11.4c0,0.3,0,0.5,0,0.7l-5.9,47.2c-0.1,0.5-0.3,1.6-0.3,2.8c0,1.4,0.2,2.4,0.7,3.1c0.4,0.6,1,1,1.7,1.1   c0.7,0.1,1.5,0.2,2.4,0.2c0.4,0,0.8,0,1.1,0c0.3,0,0.5,0,0.7,0c0.3,0,0.4,0,0.4,0c1.6,0.4,3.6,1.4,3.6,4.2V199.7z M318,185.3   c0,1,0.2,1.7,0.2,1.9c1.3,4.2,4.5,5.6,6.2,5.8h3.5c0.6,0,1.2-0.5,1.3-1.1l2.9-22c0-0.1,0-0.1,0-0.2c0-0.4-0.2-0.8-0.6-1.1   c-0.4-0.3-0.9-0.3-1.4-0.1c-8.4,4.7-11.2,12.1-11.8,14.2C318.2,183.5,318,184.4,318,185.3"></path>
	<path class="st2" d="M78.9,229.7c0,0-9.4,8.1-2.1,16.6c11.6,10.6,25.1,4.6,29.8,1.9c12.5-7.9,17.8-28.6,17.8-28.6S113,247,94.2,247   C86.6,247.1,74.4,241.7,78.9,229.7z"></path>
	<path class="st3" d="M67.4,237c0,0-4.6,25.9,22.7,26c8.4-0.3,21.8-3.3,30.3-15.7c8.6-12.3,20.3-42.1,21.3-44.6   c1-2.6,24.1-56.4,25.1-59c1-2.6,3.4-7.2,7.7-7.2c-0.2,2.7-0.2,3.9-0.2,4.9c0,0-1.1,1.5-1.9,2.7c-0.8,1.2-5.5,11.8-7,15.5   c-1.5,3.7-18.1,42.5-18.1,42.5l-12.3,28.9c0,0-2.5,5.9-3.6,8.2c-1.1,2.3-5.7,12.8-17,20.4s-22.9,8.4-27.3,8.4   c-4.4,0-18.6-3.4-21.9-14.7C62,242,67.4,237,67.4,237z"></path>
	<path class="st2" d="M216.7,88.7l-6.8,4.3c0,0-1.3,0.7-1.6,2.6s-12.1,97.8-12.1,97.8s-0.2,8,7.9,0.9c-0.1-0.6-2.2-0.1-2.4-1.3   c-0.2-1.2-0.1-2.3,0.4-5.6c0.4-3.3,7.3-56.7,7.3-56.7l3.5-31c0,0,1.1-4.5,1.5-5.9c0.4-1.4,1.4-3.5,1.4-3.5L216.7,88.7z"></path>
	<path class="st3" d="M167.4,199c0,0-1.4,26.3,19.6,26.3c15.6,0,19.9-12.7,19.9-12.7l30.5-71.7c0,0,1.5-5.4,6.7-4   c-0.1,2.3-0.4,4.3-0.4,4.3l-13.5,32.6l-18.4,43.5c0,0-8.7,13.4-23,13.7c-14.4,0.3-20.2-9.2-20.9-11.8c-0.7-2.6-2.5-8.2-2.3-12.4   C165.8,202.8,167.4,199,167.4,199z"></path>
	<path class="st3" d="M286.1,88.9l-7,4.4c0,0-1.1,1.4-1.5,3c-0.3,1.6-13.9,126.4-13.9,126.4s-1.9,8.8,5.3,15.1   c3.1,2.7,8.5,5.4,14.4-0.9c0.9-0.4,0.5-1.5-0.5-1.3s-5.5,1.5-8.3-0.7c-2.8-2.2-5.3-5.2-5.2-9.1s1.6-19.3,2.2-23.3   c0.5-4,5-44.7,5.4-48.4c0.4-3.8,4.6-40.2,4.9-43.8c0.3-3.6,0.9-10.7,1.5-13.4c0.6-2.8,1.5-5.7,2-6.5s0.7-1.1,0.7-1.1L286.1,88.9z"></path>
	<path class="st3" d="M283.7,236.9c0,0-0.5,3.4-7.9,4.9c-5.7,3.9-9.3,5.9-17,5.9c-13.9,0-24.2-11.8-23.9-21.1   c-1.1,3.2-0.8,10.8,1.9,14.9s10.3,11.3,21.2,11.3s17.4-3.6,19.3-5.5S284.4,240.3,283.7,236.9z"></path>
	<path class="st2" d="M309.2,141.6c0,0,3.4-11,17.5-11c14,0,16.3,11.2,16.3,11.2s0.9,8.2-7.6,9.9c2.2-2.3,3.7-3.5,3.2-7.3   c-0.5-3.7-6.6-8.6-12.8-8.6c-4.8,0-12.1,1.1-15.8,6.4C309.9,142.6,309.2,141.6,309.2,141.6z"></path>
	<path class="st2" d="M337,162.4c0.5-1.6,1.2-3,1.8-4.6c-0.5-0.5-3.7-0.3-5.2-0.1c-7.3,1.2-18.9,7.6-23.8,21.6   c-3.7,12.5,5.7,19.7,20.5,16.8c-6.2-0.5-7.3,0-9.4-1.1s-5.8-4.6-6.4-7.9c-0.6-3.3,1.4-9,3.7-12.7c2.3-3.6,10.2-9.8,12.8-10.9   C333.8,162.4,336,160.5,337,162.4z"></path>
	<path class="st3" d="M288.8,176.4c-4.3,11.4,0.8,29.7,22.3,30.7c14.6,0,20.5-3.9,22.4-5c1.9-1.1,4.5-1.9,7.5,0.2s13.2,4,19.9-0.2   c3.7,0.8,11.3-1.7,11.3-1.7s-0.5,3.3-2.8,4.8c-2.3,1.6-10.9,4.7-15.5,5.4c-4.7,0.8-13.4-0.9-16.2-3c-2.6,1.7-14.6,5.1-19.6,5.4   s-17.6-0.6-22.8-4.2C290,205.3,277.9,192.4,288.8,176.4z"></path>
	<path class="st3" d="M338.3,122c0,0,26.4,2.6,24.2,20.4c-2.2,17.7-5.9,47.1-5.9,47.1s-2.5,16.2,14.9,8.7c-3-0.5-7-0.8-7.9-3.9   c-0.9-3.1,1.1-18.2,1.9-23.5c0.8-5.3,3.3-25.3,3.4-28.7c0.2-3.4-1.1-10.9-7.3-14.5C355.4,124.1,342.8,119.2,338.3,122z"></path>
	<path class="st2" d="M382.6,146.4c0,0-10.1,23,8.3,37.1c8.3,6,14.2,8.2,15.7,8.7c-0.3,1.2-1.3,3-1.9,3.9   c-2.2-0.1-17.5-4.9-22.4-14.9S374,163.4,382.6,146.4z"></path>
	<path class="st3" d="M437.1,147.7c3-8.7-3.8-22.2-18.1-16.9c-14.1,5.8-17,23.6-17.6,26.4s-4.4,21.7,15,27.3   c-3.2-3.5-8.3-9.1-8.7-16.7c-0.4-7.6,1-19.9,6.7-25.8s10.2-8.6,13.1-6.6C430.4,137.5,436,148.3,437.1,147.7z"></path>
	<path class="st3" d="M465.9,129.3l-3.2-3c0,0-5.5,0.7-7.6,1.3s-5.2,2.9-3.3,7c2.8-1.2,5.1-2.7,5.1-2.7S461.5,129.2,465.9,129.3z"></path>
	<path class="st3" d="M457.6,133.6c0,0,6.7,10,2.6,27c-4.1,16.9-14,22.7-16.9,24.5c-2.9,1.8-11.5,6.2-19.1,7.5   c-3.8,0.6-8.1,2.7-9.1,7.1c-1,4.5,1.4,9,12.6,6c-4.7-1.9-6.8-3-6.5-4.3c0.3-1.3,1.4-3.6,4.7-3.9c3.2-0.3,13.9-3.5,16.6-5   c2.7-1.6,18.2-10.9,22.2-25.1s2.5-17.8,1.1-20.9S459.6,133.6,457.6,133.6z"></path>
	<path class="st3" d="M402.5,206.2c0,0,1.3,2.9,13.2,4s18.9,4.6,24.9,10.4c6,5.8,6.9,15.8,2.4,25.5c0.3-7.5,1.7-18.6-8.9-24.3   c-10.7-5.8-17.1-7.1-21.2-6.9S403,212.8,402.5,206.2z"></path>
	<path class="st3" d="M453.6,214.1c0,0,13,14.8,13,29.5c0,14.7-10.4,21.2-13,22.9c-2.6,1.7-14.4,10.5-33.8,10.5s-44.2-7.2-54.8-33.2   c1,11.4,2.9,28.4,44.9,38.1c3.2,0.9,30.4,3.5,45.9-10.1c15.5-13.5,11.7-10.2,13.4-13.7c1.7-3.5,5.3-15.3,2.9-22.5   S465.4,220.6,453.6,214.1z"></path>
	<path class="st2" d="M379.2,219.2c0,0-8,6.5-8.9,16.8c-0.8,10.3,3.8,15.5,5.6,17.3c1.7,1.7,13.2,16.2,40.1,9.4   c-8.5-0.3-17.8-0.1-26-5.6c-8.2-5.5-12.7-10.5-14.2-16.1s-1.3-11.5-0.7-14.2C375.7,224.1,378.3,220,379.2,219.2z"></path>
	<path class="st2" d="M475.7,128.8c0,0,3.6-2.8,7.6-2.5s8.1,1.7,7.1,9.8s-7.1,57.5-7.1,60.2c0,2.7,2.5,8.5,9.4,9   c7,0.5,12.3-1,14.6-2c3.5,0,9.4,0,10.9-1.7c0.8,2.2-5.3,5.3-9.9,7.8c-4.6,2.5-19.6,3.8-25-1.3s-6-9.1-5.6-14.4   c0.3-5.3,6.5-50.1,7-53.4c0.5-3.3,0.7-7.6-3-9S475.7,128.8,475.7,128.8z"></path>
	<path class="st3" d="M519,200.4c0,0-9.4,3.8-12.5,0.9c-3-2.9-4-7.2-3.3-12.5c0.6-5.3,5.2-41.4,5.2-41.4s0.8-3.3,4.9-6.8   s14.9-12.3,22.7-7.5c7.8,4.9-0.5,17.8-0.5,17.8s0.2-5.9,0-8.1s-1.7-8.4-8.2-5.3s-12.8,9.4-12.8,9.4l-5.3,44.9c0,0-0.5,5.6,4.9,6.2   C519.3,198.7,520.4,199.8,519,200.4z"></path>
	<path class="st2" d="M534,121.9c0,0,28-4.3,26,13.5s-6.7,52.3-6.7,55.4s-0.3,15.7,16.3,9.1c-0.6-0.9-0.9-1.2-3.2-1.2   s-6.2-1.7-6.7-6.2s2-23,2.7-28.1c0.8-5.2,3.5-28.8,3.3-30.4c-0.2-1.7-0.9-11.7-11.9-13.4C543,118.9,534,121.9,534,121.9z"></path>
	<path class="st3" d="M569.3,200.7c0,0-5.2,4.1-11.6,1.9c-3.5,3.2-24.7,9-28.1-12.6c-1.5,7.3-0.9,13.1,3,16c4,2.9,9,6.1,17.7,4.9   C559,209.7,567.2,204.5,569.3,200.7z"></path>
	<path class="st2" d="M578,129.2c0,0,6.6-2.1,11.1,0.5c4.5,2.6,3.2,9.5,2.7,13.5s-5.8,51.3-5.8,53.6c0,2.2,1.9,9.1,12,9.3   s19.4-0.3,28.7-8.5c1.9-1.9,5.8-3.9,9,1.1s7.4,10.3,23.6,4.5c3.5,0.3,9.5-0.3,11.6-2.6c-2.2,4.2-11.1,10.7-21.3,10.6   c-10.3-0.2-17-5.5-18.1-8.5c-3.9,2.2-16.4,9.6-29.2,9.6c-12.8,0-21.5-5.9-22.1-10.9s4.3-46.4,4.7-50.7c0.3-4.3,2.1-11.6,0.5-14.9   C583.6,132.5,581,128.3,578,129.2z"></path>
	<path class="st3" d="M590,123.6c0,0,23.3-3.9,21,13.8c-2.2,17.6-5.9,43.8-6.4,48s-0.8,25.8,26.3,1.6c-5.8,2.1-13.6,7.7-16.5,5.9   c-2.9-1.8-2.7-6.1-1.8-11.1c1-5,5.8-40.3,5.8-46.4c0-6.1-4.2-16.5-14.8-15.6C593,120.9,590,123.6,590,123.6z"></path>
	<path class="st3" d="M639.9,122.7c0,0,23.3-3.1,21.6,13.3s-6.4,50.4-6.6,53.2c-0.3,2.8-1.6,18.5,16,10.2c-2.7-0.1-7.5-1.2-8.4-3.3   c-0.9-2.1-1.2-4.7-0.7-10c0.4-5.3,5.6-49.8,5.6-49.8s0.7-9.9-7.1-13.1C652.3,119.9,646.5,120.2,639.9,122.7z"></path>
	<path class="st3" d="M758.9,129.6l-3,1.8c0,0-21.2-13.1-34.3-1.3c-23.1,23.3,33.6,36.6,32.7,57.1c0,10-28,31.1-73.1,12.9l-0.6,1.6   c0,0,4,4.3,9,5.6c5,1.3,15.7,5,29.5,5s23.4-5.3,25.8-6.9s14.9-9.9,14.9-16.4s-1.4-11.1-8.5-18s-18.8-15.6-21.3-18.1   c-2.6-2.6-7.5-7.4-7.5-13.1c1-1,3.4-10.4,14.3-10.4c10.9,0,22,5.8,22,5.8L758.9,129.6z"></path>
	<path class="st2" d="M703.8,123c0,0-17.4,7.7-17.4,19.7c0,12,16.7,22.7,24.9,29.4c8.1,6.6,20.6,20.8-5.4,29.4   c4.5-3.4,9.2-6.2,9-9.6c-0.2-3.4-0.2-10.3-9.6-15.9c-9.4-5.6-19.9-16.5-22.7-19.9s-5.8-16.3,0.6-22.7S699.7,121.9,703.8,123z"></path>
	<g>
		<path class="st1" d="M116.1,320.9c0.4-2.1,1.2-3.7,2.4-4.6c1.2-1,2.7-1.4,4.7-1.4h8.6c4.2,0,7.3,1,9.3,3.1    c2.1,2.1,3.1,4.8,3.1,8.3c0,1.4-0.2,3-0.5,4.6c-0.5,2.3-1.3,4.4-2.3,6.3c-1,1.9-2.3,3.6-3.9,5.1c-1.6,1.4-3.4,2.6-5.5,3.4    c-2.1,0.8-4.5,1.2-7,1.2h-8.6c-3.2,0-4.8-1.3-4.8-3.9c0-0.7,0.1-1.4,0.3-2.2L116.1,320.9z M124.5,338.8c2.8,0,4.9-0.6,6.2-2    c1.3-1.3,2.3-3.3,2.9-6c0.3-1.2,0.4-2.3,0.4-3.2c0-1.6-0.5-2.8-1.4-3.6c-0.9-0.8-2.5-1.2-4.7-1.2h-2.3l-3.4,16H124.5z"></path>
		<path class="st1" d="M168.7,344.1c-0.6,0.6-1.4,1.2-2.4,1.7c-1.1,0.5-2.4,0.9-4,1.2c-1.6,0.3-3.5,0.4-5.6,0.4    c-3.3,0-5.9-0.7-7.8-2.2c-2-1.5-2.9-3.7-2.9-6.7c0-1,0.1-2.1,0.4-3.3c0.4-2,1.1-3.8,2.1-5.4c1-1.5,2.2-2.8,3.6-3.8    c1.4-1,2.9-1.8,4.6-2.2c1.7-0.5,3.4-0.7,5.3-0.7c2.1,0,3.9,0.3,5.3,0.8c1.5,0.6,2.6,1.3,3.5,2.2c0.9,0.9,1.5,1.8,1.8,2.9    c0.4,1,0.5,2,0.5,3c0,0.6,0,1.1-0.1,1.6c-0.3,1.4-0.8,2.3-1.6,2.9c-0.8,0.6-1.9,0.8-3.4,0.8H155c-0.1,0.3-0.1,0.6-0.1,1    c0,1.2,0.3,2.2,1,2.8c0.7,0.7,1.6,1,2.9,1c0.8,0,1.5-0.1,2.2-0.4c0.7-0.3,1.5-0.6,2.5-1.1c0.9-0.4,1.6-0.8,2.2-1    c0.6-0.2,1.2-0.3,1.8-0.3c0.7,0,1.2,0.2,1.6,0.7c0.4,0.5,0.6,1.1,0.6,1.7v0.3l0,0.3C169.6,342.9,169.3,343.5,168.7,344.1     M164.6,332.7c0.1-0.4,0.1-0.9,0.1-1.3c0-1.1-0.3-1.8-1-2.3c-0.6-0.5-1.5-0.7-2.5-0.7c-1.2,0-2.2,0.3-3.2,1c-1,0.7-1.6,1.8-2,3.3    H164.6z"></path>
		<path class="st1" d="M208.2,337.4l0-0.2c0-0.5-0.2-0.9-0.6-1.1c-0.4-0.3-1-0.5-1.8-0.8l-6.4-2c-4.1-1.3-6.2-3.6-6.2-7    c0-0.6,0.1-1.2,0.2-2c0.3-1.4,0.8-2.7,1.6-3.9c0.7-1.2,1.7-2.3,2.9-3.3c1.2-1,2.7-1.7,4.4-2.3c1.7-0.6,3.6-0.8,5.8-0.8    c1.5,0,2.9,0.1,4.3,0.3c1.4,0.2,2.7,0.5,3.9,0.9c1.2,0.4,2.1,1,2.9,1.8c0.7,0.8,1.1,1.7,1.1,2.7c0,0.3,0,0.7-0.1,1.1    c-0.3,1.2-0.9,2.2-1.9,2.9c-1,0.7-2.1,1.1-3.4,1.1c-0.7,0-1.2-0.1-1.6-0.4c-0.4-0.3-0.9-0.7-1.3-1.3c-0.7-0.7-1.3-1.3-1.9-1.6    c-0.6-0.4-1.6-0.6-2.8-0.6c-0.9,0-1.8,0.2-2.5,0.6c-0.7,0.4-1.2,0.9-1.3,1.6v0.2l0,0.2c0,0.5,0.2,1,0.7,1.3    c0.5,0.3,1.2,0.6,2.2,0.9l5,1.4c2.4,0.7,4.2,1.6,5.4,2.7c1.2,1.1,1.9,2.7,1.9,4.6c0,0.7-0.1,1.4-0.2,2.2c-0.4,1.8-1.1,3.4-2.2,4.8    c-1,1.4-2.2,2.5-3.7,3.4c-1.4,0.9-3,1.6-4.7,2c-1.7,0.4-3.4,0.6-5.1,0.6c-2.3,0-4.2-0.2-5.9-0.6c-1.6-0.4-2.9-1-3.9-1.6    c-1-0.7-1.6-1.4-2.1-2.2c-0.4-0.8-0.6-1.6-0.6-2.4c0-0.3,0-0.6,0.1-0.9c0.3-1.2,0.9-2.2,1.9-3c1-0.8,2.1-1.2,3.3-1.2    c0.7,0,1.3,0.2,1.8,0.5c0.5,0.3,1,0.8,1.5,1.6c0.7,0.9,1.3,1.5,2,2c0.7,0.4,1.6,0.7,2.8,0.7c1.2,0,2.1-0.2,3-0.6    c0.8-0.4,1.3-1.1,1.6-2V337.4z"></path>
		<path class="st1" d="M247.2,340c-0.1,0.6-0.3,1.4-0.4,2.4c-0.1,0.8-0.2,1.3-0.2,1.7c-0.2,1.1-0.8,1.9-1.8,2.4    c-0.9,0.5-2,0.8-3.2,0.8c-1.4,0-2.4-0.3-2.9-0.9c-0.6-0.6-0.9-1.5-0.9-2.7c-1.1,1.3-2.5,2.2-4,2.8c-1.6,0.6-3.2,0.9-4.9,0.9    c-2.3,0-4.1-0.4-5.4-1.3c-1.3-0.9-2-2.2-2-4c0-0.6,0.1-1.2,0.2-1.9c0.2-1,0.6-1.9,1.2-2.7c0.6-0.8,1.4-1.5,2.4-2.2    c1-0.7,2.4-1.2,4-1.6c1.6-0.4,3.5-0.7,5.8-0.8c1.8-0.1,3.1-0.3,3.9-0.7c0.8-0.3,1.2-0.9,1.4-1.6v-0.3l0-0.2c0-1.2-1.1-1.8-3.3-1.8    c-0.9,0-1.7,0.1-2.4,0.4c-0.7,0.3-1.5,0.7-2.4,1.3c-0.8,0.5-1.5,0.8-2,1.1c-0.5,0.2-1.1,0.4-1.8,0.4c-1.6,0-2.4-0.7-2.4-2    c0-0.2,0-0.5,0.1-0.8c0.2-0.9,0.6-1.6,1.3-2.3c0.7-0.7,1.6-1.3,2.7-1.8c2.3-1,5.1-1.6,8.3-1.6c1.2,0,2.5,0.1,3.7,0.2    c1.3,0.2,2.4,0.5,3.5,0.9c1.1,0.4,2,1,2.7,1.7c0.7,0.7,1,1.7,1,2.7c0,0.4,0,0.8-0.1,1.2L247.2,340z M239.1,336.4    c-0.4,0.4-1,0.7-1.6,0.8c-0.6,0.2-1.4,0.3-2.3,0.5c-1.1,0.2-1.9,0.3-2.4,0.5c-0.9,0.4-1.4,1-1.6,1.9v0.2l0,0.2    c0,0.6,0.2,1,0.7,1.4c0.5,0.3,1,0.5,1.7,0.5c1.2,0,2.3-0.3,3.3-1c1-0.7,1.5-1.4,1.7-2.3L239.1,336.4z"></path>
		<path class="st1" d="M256.2,318.9c0.3-1.5,0.9-2.7,1.9-3.4c0.9-0.8,2.1-1.1,3.5-1.1c2.4,0,3.6,1,3.6,3.1c0,0.5-0.1,1-0.2,1.5    l-1.6,7.7h0.1c0.9-1.1,2-2,3.2-2.6c1.2-0.6,2.5-0.9,4-0.9c1.4,0,2.7,0.3,3.7,0.8c1,0.5,1.8,1.2,2.4,2.1c0.6,0.9,1,1.8,1.3,2.9    c0.3,1.1,0.4,2.2,0.4,3.3c0,1.1-0.1,2.1-0.3,3.1c-0.8,3.8-2.4,6.7-4.7,8.9c-2.3,2.2-5.1,3.3-8.3,3.3c-1.5,0-2.9-0.4-4.1-1.1    c-1.2-0.7-1.9-1.7-1.9-3.1h-0.1c-0.2,1.2-0.8,2.2-1.7,3c-0.9,0.8-1.9,1.2-3.2,1.2c-2.2,0-3.3-1-3.3-2.9c0-0.5,0.1-1,0.2-1.5    L256.2,318.9z M261.1,337.5c0,1,0.2,1.8,0.7,2.4c0.5,0.6,1.2,0.8,2.1,0.8c1.4,0,2.5-0.5,3.4-1.6c0.8-1,1.4-2.3,1.7-3.7    c0.1-0.7,0.2-1.3,0.2-1.9c0-1-0.3-1.8-0.8-2.4c-0.5-0.6-1.3-0.9-2.4-0.9c-1,0-2,0.4-2.8,1.3c-0.8,0.9-1.4,2.1-1.8,3.7    C261.2,336,261.1,336.8,261.1,337.5z"></path>
		<path class="st1" d="M283.9,329.8c1-1.5,2.2-2.8,3.6-3.8c1.4-1,2.9-1.8,4.6-2.2c1.7-0.5,3.4-0.7,5.3-0.7c3.3,0,5.9,0.7,7.8,2.2    c2,1.5,2.9,3.7,2.9,6.7c0,1-0.1,2.1-0.4,3.2c-0.4,2-1.2,3.8-2.1,5.4c-1,1.6-2.2,2.8-3.6,3.8c-1.4,1-2.9,1.8-4.6,2.2    c-1.7,0.5-3.4,0.7-5.3,0.7c-3.3,0-5.9-0.7-7.8-2.2c-2-1.5-2.9-3.7-2.9-6.7c0-1,0.1-2.1,0.4-3.3    C282.2,333.1,282.9,331.3,283.9,329.8 M298.9,332.6c0-2.3-0.9-3.5-2.8-3.5c-1.3,0-2.3,0.5-3.2,1.6c-0.9,1-1.5,2.6-2,4.7    c-0.2,0.9-0.3,1.6-0.3,2.3c0,2.3,1,3.5,2.9,3.5c2.6,0,4.3-1.9,5.1-5.8C298.8,334.4,298.9,333.4,298.9,332.6z"></path>
		<path class="st1" d="M313.4,327.5c0.3-1.5,1-2.6,1.9-3.4c0.9-0.8,2-1.2,3.2-1.2c1,0,1.8,0.3,2.4,0.8c0.6,0.5,0.9,1.3,0.9,2.3    c0,0.5-0.1,1-0.2,1.6l-0.4,1.8h0.1c1.3-2.2,2.5-3.8,3.7-4.9c1.2-1.1,2.4-1.6,3.7-1.6c1,0,1.8,0.3,2.3,0.8c0.5,0.5,0.7,1.3,0.7,2.1    c0,0.4,0,0.8-0.1,1.2c-0.5,2.3-1.6,3.7-3.4,4.1l-2.6,0.6c-1.4,0.3-2.5,0.8-3.2,1.5c-0.8,0.7-1.3,1.7-1.6,3.1l-1.3,6.3    c-0.3,1.5-1,2.6-2,3.4c-1,0.8-2.2,1.1-3.6,1.1c-1.2,0-2.1-0.3-2.7-0.8c-0.7-0.5-1-1.4-1-2.4c0-0.4,0-0.8,0.1-1.3L313.4,327.5z"></path>
		<path class="st1" d="M371.9,340c-0.1,0.6-0.3,1.4-0.4,2.4c-0.1,0.8-0.2,1.3-0.2,1.7c-0.2,1.1-0.8,1.9-1.8,2.4    c-0.9,0.5-2,0.8-3.2,0.8c-1.4,0-2.4-0.3-2.9-0.9c-0.6-0.6-0.9-1.5-0.9-2.7c-1.1,1.3-2.5,2.2-4,2.8c-1.6,0.6-3.2,0.9-4.9,0.9    c-2.3,0-4.1-0.4-5.4-1.3c-1.3-0.9-2-2.2-2-4c0-0.6,0.1-1.2,0.2-1.9c0.2-1,0.6-1.9,1.2-2.7c0.6-0.8,1.4-1.5,2.4-2.2    c1-0.7,2.4-1.2,4-1.6c1.6-0.4,3.5-0.7,5.8-0.8c1.8-0.1,3.1-0.3,3.9-0.7c0.8-0.3,1.2-0.9,1.4-1.6v-0.3l0-0.2c0-1.2-1.1-1.8-3.3-1.8    c-0.9,0-1.7,0.1-2.4,0.4c-0.7,0.3-1.5,0.7-2.4,1.3c-0.8,0.5-1.5,0.8-2,1.1c-0.5,0.2-1.1,0.4-1.8,0.4c-1.6,0-2.4-0.7-2.4-2    c0-0.2,0-0.5,0.1-0.8c0.2-0.9,0.6-1.6,1.3-2.3c0.7-0.7,1.6-1.3,2.7-1.8c2.3-1,5.1-1.6,8.3-1.6c1.2,0,2.5,0.1,3.7,0.2    c1.3,0.2,2.4,0.5,3.5,0.9c1.1,0.4,2,1,2.7,1.7c0.7,0.7,1,1.7,1,2.7c0,0.4,0,0.8-0.1,1.2L371.9,340z M363.8,336.4    c-0.4,0.4-1,0.7-1.6,0.8c-0.6,0.2-1.4,0.3-2.3,0.5c-1.1,0.2-1.9,0.3-2.4,0.5c-0.9,0.4-1.4,1-1.6,1.9v0.2l0,0.2    c0,0.6,0.2,1,0.7,1.4c0.5,0.3,1,0.5,1.7,0.5c1.2,0,2.3-0.3,3.3-1c1-0.7,1.5-1.4,1.7-2.3L363.8,336.4z"></path>
		<path class="st1" d="M412.1,336c-0.7,0-1.3-0.2-1.8-0.7c-0.5-0.4-0.7-1-0.7-1.8c0-0.2,0-0.4,0.1-0.7c0.2-1.1,0.7-2,1.4-2.6    c0.7-0.6,1.6-0.9,2.7-0.9h6.6c1.2,0,2.2,0.3,2.9,1c0.7,0.7,1,1.5,1,2.6c0,0.4,0,0.8-0.1,1.2l-1.9,9.1c-0.3,1.2-0.8,2.2-1.5,3    c-0.7,0.8-1.7,1.2-3,1.2c-0.9,0-1.5-0.2-2-0.7c-0.5-0.5-0.7-1.1-0.7-1.8c0-0.2,0-0.4,0.1-0.7l0.2-0.9h-0.1c-1,1.2-2.5,2.2-4.4,2.9    c-1.9,0.7-3.8,1.1-5.6,1.1c-1.6,0-3.1-0.2-4.6-0.6c-1.5-0.4-2.8-1.1-4-2c-1.2-0.9-2.2-2.1-2.9-3.7c-0.7-1.5-1-3.3-1-5.5    c0-1.5,0.2-3.2,0.6-5c0.6-2.9,1.6-5.4,3-7.5c1.4-2.2,3-3.9,4.9-5.3c1.9-1.3,3.8-2.3,5.8-3c2-0.6,4-1,5.9-1c2.2,0,4,0.2,5.5,0.6    c1.5,0.4,2.7,1,3.6,1.7c0.9,0.7,1.5,1.4,1.9,2.2c0.4,0.8,0.6,1.5,0.6,2.3c0,0.3,0,0.6-0.1,0.8c-0.2,1.1-0.9,2.2-2,3.1    c-1.1,0.9-2.4,1.4-3.8,1.4c-0.7,0-1.2-0.1-1.6-0.4c-0.4-0.3-0.8-0.8-1.3-1.4c-0.5-0.7-1.1-1.3-1.6-1.7c-0.6-0.4-1.4-0.6-2.5-0.6    c-1.8,0-3.5,0.7-4.9,2.2c-1.5,1.5-2.5,3.7-3.1,6.7c-0.3,1.4-0.5,2.7-0.5,3.8c0,1.7,0.4,2.9,1.2,3.8c0.8,0.9,2.1,1.3,4,1.3    c1.6,0,2.9-0.3,3.9-1c1.1-0.7,1.9-1.6,2.5-2.8H412.1z"></path>
		<path class="st1" d="M451,344.1c-0.6,0.6-1.4,1.2-2.4,1.7c-1,0.5-2.4,0.9-4,1.2c-1.6,0.3-3.5,0.4-5.6,0.4c-3.3,0-5.9-0.7-7.8-2.2    c-2-1.5-2.9-3.7-2.9-6.7c0-1,0.1-2.1,0.4-3.3c0.4-2,1.1-3.8,2.1-5.4c1-1.5,2.2-2.8,3.6-3.8c1.4-1,2.9-1.8,4.6-2.2    c1.7-0.5,3.4-0.7,5.3-0.7c2.1,0,3.9,0.3,5.3,0.8c1.5,0.6,2.6,1.3,3.5,2.2c0.9,0.9,1.5,1.8,1.8,2.9c0.4,1,0.5,2,0.5,3    c0,0.6,0,1.1-0.1,1.6c-0.3,1.4-0.8,2.3-1.6,2.9c-0.8,0.6-1.9,0.8-3.4,0.8h-12.9c-0.1,0.3-0.1,0.6-0.1,1c0,1.2,0.3,2.2,1,2.8    c0.7,0.7,1.6,1,2.9,1c0.8,0,1.5-0.1,2.2-0.4c0.7-0.3,1.5-0.6,2.5-1.1c0.9-0.4,1.6-0.8,2.2-1c0.6-0.2,1.2-0.3,1.8-0.3    c0.7,0,1.2,0.2,1.6,0.7c0.4,0.5,0.6,1.1,0.6,1.7v0.3l0,0.3C452,342.9,451.6,343.5,451,344.1 M446.9,332.7c0.1-0.4,0.1-0.9,0.1-1.3    c0-1.1-0.3-1.8-1-2.3c-0.6-0.5-1.5-0.7-2.5-0.7c-1.2,0-2.2,0.3-3.2,1c-1,0.7-1.6,1.8-2,3.3H446.9z"></path>
		<path class="st1" d="M474.8,334.1c0.1-0.5,0.1-1,0.1-1.4c0-1.7-0.9-2.5-2.7-2.5c-1.1,0-2.1,0.4-2.8,1.2c-0.7,0.8-1.3,1.9-1.6,3.3    l-1.7,8.1c-0.3,1.5-1,2.6-2,3.4c-1,0.8-2.2,1.1-3.6,1.1c-1.2,0-2.1-0.3-2.7-0.8c-0.7-0.5-1-1.4-1-2.4c0-0.4,0-0.8,0.1-1.3    l3.3-15.5c0.6-2.9,2.4-4.3,5.3-4.3c1.2,0,2,0.3,2.5,0.8c0.5,0.5,0.8,1.4,0.8,2.5c0,0.1,0,0.3,0,0.5c0,0.2,0,0.4,0,0.5h0.1    c2.2-2.9,5-4.3,8.5-4.3c2.5,0,4.3,0.6,5.5,1.7c1.2,1.1,1.8,2.7,1.8,4.6c0,0.8-0.1,1.7-0.3,2.6l-2.3,10.9c-0.3,1.5-1,2.6-2,3.4    c-1,0.8-2.2,1.1-3.6,1.1c-1.2,0-2.1-0.3-2.7-0.8c-0.7-0.5-1-1.4-1-2.4c0-0.4,0-0.8,0.1-1.3L474.8,334.1z"></path>
		<path class="st1" d="M493.6,320.7c0.3-1.5,0.9-2.7,1.9-3.4c0.9-0.8,2.1-1.1,3.5-1.1c2.4,0,3.6,1,3.6,3.1c0,0.5-0.1,1-0.2,1.5    l-0.6,2.9h2.7c1.6,0,2.4,0.6,2.4,1.9c0,0.2,0,0.5-0.1,0.8c-0.4,1.8-1.5,2.7-3.4,2.7h-2.7l-2.2,10.1l-0.1,0.7v0.2l0,0.1    c0,0.5,0.3,0.8,0.8,0.8c1.4,0,2.4,0.2,3,0.5c0.6,0.4,0.9,0.9,0.9,1.7c0,0.3,0,0.6-0.1,1c-0.2,1.1-0.9,1.9-1.9,2.5    c-1,0.6-2.8,0.9-5.2,0.9c-4.4,0-6.6-1.8-6.6-5.4c0-0.7,0.1-1.5,0.3-2.3l2.3-10.7h-1.7c-1.6,0-2.4-0.6-2.4-1.9c0-0.2,0-0.5,0.1-0.8    c0.4-1.8,1.5-2.7,3.4-2.7h1.7L493.6,320.7z"></path>
		<path class="st1" d="M529,344.1c-0.6,0.6-1.4,1.2-2.4,1.7c-1.1,0.5-2.4,0.9-4,1.2c-1.6,0.3-3.5,0.4-5.6,0.4    c-3.3,0-5.9-0.7-7.8-2.2c-2-1.5-2.9-3.7-2.9-6.7c0-1,0.1-2.1,0.4-3.3c0.4-2,1.1-3.8,2.1-5.4c1-1.5,2.2-2.8,3.6-3.8    c1.4-1,2.9-1.8,4.6-2.2c1.7-0.5,3.4-0.7,5.3-0.7c2.1,0,3.9,0.3,5.3,0.8c1.5,0.6,2.6,1.3,3.5,2.2c0.9,0.9,1.5,1.8,1.8,2.9    c0.4,1,0.5,2,0.5,3c0,0.6,0,1.1-0.1,1.6c-0.3,1.4-0.8,2.3-1.6,2.9c-0.8,0.6-1.9,0.8-3.4,0.8h-12.9c-0.1,0.3-0.1,0.6-0.1,1    c0,1.2,0.3,2.2,1,2.8c0.7,0.7,1.6,1,2.9,1c0.8,0,1.5-0.1,2.2-0.4c0.7-0.3,1.5-0.6,2.5-1.1c0.9-0.4,1.6-0.8,2.2-1    c0.6-0.2,1.2-0.3,1.8-0.3c0.7,0,1.2,0.2,1.6,0.7c0.4,0.5,0.6,1.1,0.6,1.7v0.3l0,0.3C529.9,342.9,529.6,343.5,529,344.1     M524.9,332.7c0.1-0.4,0.1-0.9,0.1-1.3c0-1.1-0.3-1.8-1-2.3c-0.6-0.5-1.5-0.7-2.5-0.7c-1.2,0-2.2,0.3-3.2,1c-1,0.7-1.6,1.8-2,3.3    H524.9z"></path>
		<path class="st1" d="M555.9,320.9c0.4-2.1,1.2-3.7,2.4-4.6c1.2-1,2.7-1.4,4.7-1.4h16.2c1.3,0,2.2,0.2,2.8,0.7    c0.6,0.5,0.9,1.2,0.9,2.1c0,0.3,0,0.6-0.1,0.9c-0.2,1.2-0.8,2.1-1.7,2.7c-0.9,0.7-2.1,1-3.6,1h-11.8l-0.9,4.5h9.5    c1.3,0,2.2,0.2,2.8,0.7c0.6,0.5,0.9,1.2,0.9,2c0,0.3,0,0.7-0.1,1c-0.2,1.2-0.8,2.1-1.7,2.7c-0.9,0.7-2.1,1-3.5,1h-9.5l-1.1,5.1    h12.3c1.3,0,2.2,0.2,2.8,0.7c0.6,0.5,0.9,1.2,0.9,2.1c0,0.3,0,0.6-0.1,0.9c-0.2,1.2-0.8,2.1-1.7,2.7c-0.9,0.7-2.1,1-3.5,1h-16.7    c-3.2,0-4.8-1.3-4.8-3.9c0-0.7,0.1-1.4,0.3-2.2L555.9,320.9z"></path>
		<path class="st1" d="M599.6,334.1c0.1-0.5,0.1-1,0.1-1.4c0-1.7-0.9-2.5-2.7-2.5c-1.1,0-2.1,0.4-2.8,1.2c-0.7,0.8-1.3,1.9-1.5,3.3    l-1.7,8.1c-0.3,1.5-1,2.6-2,3.4c-1,0.8-2.2,1.1-3.6,1.1c-1.2,0-2.1-0.3-2.7-0.8c-0.7-0.5-1-1.4-1-2.4c0-0.4,0-0.8,0.1-1.3    l3.3-15.5c0.6-2.9,2.4-4.3,5.3-4.3c1.2,0,2,0.3,2.5,0.8c0.5,0.5,0.8,1.4,0.8,2.5c0,0.1,0,0.3,0,0.5c0,0.2,0,0.4,0,0.5h0.1    c2.2-2.9,5-4.3,8.5-4.3c2.5,0,4.3,0.6,5.5,1.7c1.2,1.1,1.8,2.7,1.8,4.6c0,0.8-0.1,1.7-0.3,2.6l-2.3,10.9c-0.3,1.5-1,2.6-2,3.4    c-1,0.8-2.2,1.1-3.6,1.1c-1.2,0-2.1-0.3-2.7-0.8c-0.7-0.5-1-1.4-1-2.4c0-0.4,0-0.8,0.1-1.3L599.6,334.1z"></path>
		<path class="st1" d="M618.3,320.7c0.3-1.5,0.9-2.7,1.9-3.4c0.9-0.8,2.1-1.1,3.5-1.1c2.4,0,3.6,1,3.6,3.1c0,0.5-0.1,1-0.2,1.5    l-0.6,2.9h2.7c1.6,0,2.4,0.6,2.4,1.9c0,0.2,0,0.5-0.1,0.8c-0.4,1.8-1.5,2.7-3.4,2.7h-2.7l-2.2,10.1l-0.1,0.7v0.2l0,0.1    c0,0.5,0.3,0.8,0.8,0.8c1.4,0,2.4,0.2,3,0.5c0.6,0.4,0.9,0.9,0.9,1.7c0,0.3,0,0.6-0.1,1c-0.2,1.1-0.9,1.9-1.9,2.5    c-1,0.6-2.8,0.9-5.2,0.9c-4.4,0-6.6-1.8-6.6-5.4c0-0.7,0.1-1.5,0.3-2.3l2.3-10.7h-1.7c-1.6,0-2.4-0.6-2.4-1.9c0-0.2,0-0.5,0.1-0.8    c0.4-1.8,1.5-2.7,3.4-2.7h1.7L618.3,320.7z"></path>
		<path class="st1" d="M653.8,344.1c-0.6,0.6-1.4,1.2-2.4,1.7c-1,0.5-2.4,0.9-4,1.2c-1.6,0.3-3.5,0.4-5.6,0.4    c-3.3,0-5.9-0.7-7.8-2.2c-2-1.5-2.9-3.7-2.9-6.7c0-1,0.1-2.1,0.4-3.3c0.4-2,1.1-3.8,2.1-5.4c1-1.5,2.2-2.8,3.6-3.8    c1.4-1,2.9-1.8,4.6-2.2c1.7-0.5,3.4-0.7,5.3-0.7c2.1,0,3.9,0.3,5.3,0.8c1.5,0.6,2.6,1.3,3.5,2.2c0.9,0.9,1.5,1.8,1.8,2.9    c0.4,1,0.5,2,0.5,3c0,0.6,0,1.1-0.1,1.6c-0.3,1.4-0.8,2.3-1.6,2.9c-0.8,0.6-1.9,0.8-3.4,0.8h-12.9c-0.1,0.3-0.1,0.6-0.1,1    c0,1.2,0.3,2.2,1,2.8c0.7,0.7,1.6,1,2.9,1c0.8,0,1.5-0.1,2.2-0.4c0.7-0.3,1.5-0.6,2.5-1.1c0.9-0.4,1.6-0.8,2.2-1    c0.6-0.2,1.2-0.3,1.8-0.3c0.7,0,1.2,0.2,1.6,0.7c0.4,0.5,0.6,1.1,0.6,1.7v0.3l0,0.3C654.7,342.9,654.3,343.5,653.8,344.1     M649.6,332.7c0.1-0.4,0.1-0.9,0.1-1.3c0-1.1-0.3-1.8-1-2.3c-0.6-0.5-1.5-0.7-2.6-0.7c-1.2,0-2.2,0.3-3.2,1c-1,0.7-1.6,1.8-2,3.3    H649.6z"></path>
		<path class="st1" d="M677.5,334.1c0.1-0.5,0.1-1,0.1-1.4c0-1.7-0.9-2.5-2.7-2.5c-1.1,0-2.1,0.4-2.8,1.2c-0.7,0.8-1.3,1.9-1.6,3.3    l-1.7,8.1c-0.3,1.5-1,2.6-2,3.4c-1,0.8-2.2,1.1-3.6,1.1c-1.2,0-2.1-0.3-2.7-0.8c-0.7-0.5-1-1.4-1-2.4c0-0.4,0-0.8,0.1-1.3    l3.3-15.5c0.6-2.9,2.4-4.3,5.3-4.3c1.2,0,2,0.3,2.5,0.8c0.5,0.5,0.8,1.4,0.8,2.5c0,0.1,0,0.3,0,0.5c0,0.2,0,0.4,0,0.5h0.1    c2.2-2.9,5-4.3,8.5-4.3c2.5,0,4.3,0.6,5.5,1.7c1.2,1.1,1.8,2.7,1.8,4.6c0,0.8-0.1,1.7-0.3,2.6l-2.3,10.9c-0.3,1.5-1,2.6-2,3.4    c-1,0.8-2.2,1.1-3.6,1.1c-1.2,0-2.1-0.3-2.7-0.8c-0.7-0.5-1-1.4-1-2.4c0-0.4,0-0.8,0.1-1.3L677.5,334.1z"></path>
		<path class="st1" d="M710.6,318.9c0.3-1.5,0.9-2.7,1.9-3.4c0.9-0.8,2.1-1.1,3.5-1.1c2.4,0,3.6,1,3.6,3.1c0,0.5-0.1,1-0.2,1.5    l-5.1,24.1c-0.7,3-2.3,4.4-5.1,4.4c-1,0-1.8-0.3-2.4-0.8c-0.6-0.5-0.8-1.3-0.8-2.2c0-0.4,0-0.7,0.1-1.1h-0.1    c-0.6,1.4-1.7,2.4-3.3,3.1c-1.6,0.7-3.1,1.1-4.6,1.1c-2.6,0-4.6-0.7-6.1-2.2c-1.4-1.5-2.1-3.6-2.1-6.3c0-1.2,0.1-2.4,0.4-3.7    c0.3-1.2,0.7-2.6,1.4-3.9c0.7-1.4,1.5-2.7,2.6-3.9c1.1-1.3,2.3-2.3,3.8-3.1c1.5-0.8,3.1-1.2,4.9-1.2c1.4,0,2.6,0.3,3.6,0.9    c0.9,0.6,1.6,1.5,2.1,2.6h0.1L710.6,318.9z M707.4,333.4c0-1-0.2-1.8-0.7-2.4c-0.5-0.6-1.1-0.8-1.9-0.8c-1.5,0-2.6,0.5-3.5,1.5    c-0.9,1-1.4,2.2-1.8,3.7c-0.1,0.7-0.2,1.3-0.2,1.9c0,1,0.2,1.8,0.7,2.4c0.5,0.6,1.2,0.9,2.3,0.9c1.3,0,2.3-0.5,3.1-1.5    c0.8-1,1.4-2.3,1.8-4C707.4,334.6,707.4,334,707.4,333.4z"></path>
		<path class="st1" d="M742.4,344.1c-0.6,0.6-1.4,1.2-2.4,1.7c-1.1,0.5-2.4,0.9-4,1.2c-1.6,0.3-3.5,0.4-5.6,0.4    c-3.3,0-5.9-0.7-7.8-2.2c-2-1.5-2.9-3.7-2.9-6.7c0-1,0.1-2.1,0.4-3.3c0.4-2,1.1-3.8,2.1-5.4c1-1.5,2.2-2.8,3.6-3.8    c1.4-1,2.9-1.8,4.6-2.2c1.7-0.5,3.4-0.7,5.3-0.7c2.1,0,3.9,0.3,5.3,0.8c1.5,0.6,2.6,1.3,3.5,2.2c0.9,0.9,1.5,1.8,1.8,2.9    c0.4,1,0.5,2,0.5,3c0,0.6,0,1.1-0.1,1.6c-0.3,1.4-0.8,2.3-1.6,2.9c-0.8,0.6-1.9,0.8-3.4,0.8h-12.9c-0.1,0.3-0.1,0.6-0.1,1    c0,1.2,0.3,2.2,1,2.8c0.7,0.7,1.6,1,2.9,1c0.8,0,1.5-0.1,2.2-0.4c0.7-0.3,1.5-0.6,2.5-1.1c0.9-0.4,1.6-0.8,2.2-1    c0.6-0.2,1.2-0.3,1.8-0.3c0.7,0,1.2,0.2,1.6,0.7c0.4,0.5,0.6,1.1,0.6,1.7v0.3l0,0.3C743.3,342.9,742.9,343.5,742.4,344.1     M738.2,332.7c0.1-0.4,0.1-0.9,0.1-1.3c0-1.1-0.3-1.8-1-2.3c-0.6-0.5-1.5-0.7-2.5-0.7c-1.2,0-2.2,0.3-3.2,1c-1,0.7-1.6,1.8-2,3.3    H738.2z"></path>
	</g>
	<g>
		<path d="M575,199.3C575,199.3,574.9,199.3,575,199.3C575,199.3,575,199.4,575,199.3L575,199.3z"></path>
		<path d="M569.4,194.3c-0.7-0.1-1.3,0-2,0c-2.7,0-3.4-0.6-3.1-3.3c0.3-3.6,0.8-7.2,1.2-10.8c0.9-7.7,2-15.3,2.9-23    c0.8-6.8,1.7-13.7,2.5-20.6c0.8-6.6-1.4-12-6.6-16.1c-4.9-3.9-10.8-5.3-16.9-5.5c-9.2-0.3-17.9,2-26.2,6c-2.3,1.1-4.4,2.4-6.4,3.5    c-2.8-1.9-5.3-4.1-8.2-5.5c-9.7-4.8-19.8-5.2-30-1.5c-2.1,0.7-3.9,1.7-5.1,3.9c-1-1.6-2-2.9-3.8-3.3c-2.8-0.6-5.5-1.1-8.4-1.1    c-3.9,0-7.7,0.8-11.4,1.9c-1.2,0.3-2.3,0.3-3.4-0.1c-5.2-1.7-10.6-3-16.1-3c-14.2,0-27.1,4.1-38.1,13.2    c-8.5,7-14.4,15.6-16.8,26.5c-2.3,10.8-0.4,20.6,5.9,29.6c4,5.8,9.5,9.9,15.8,13.1c0.7,0.3,1.3,0.7,2.1,1.1    c-0.9,3.3-0.4,6.5,0.6,9.7c1.3,3.9,3.4,7.2,7.3,8.8c2.3,0.9,4.8,1.5,7.3,1.7c5.7,0.5,11.1,1.9,16.2,4.6c2.7,1.4,5.2,3.2,7.2,5.6    c3.5,4.2,4.4,8.9,2.1,14.1c-1.6,3.7-4.4,6.3-7.7,8.4c-5.2,3.3-10.9,4.9-17,5.2c-7.7,0.4-15-0.7-21.6-4.7c-3.3-2-6.1-4.5-8.3-7.6    c-3.1-4.6-4-9.7-3.3-15.1c0.4-2.9,1.4-5.6,3.4-7.9c0.4-0.5,0.8-0.9,1.1-1.4c2-3,0.8-7.9-3.6-8.6c-2.1-0.3-4,0.2-5.6,1.5    c-3.8,3-7.1,6.5-9.6,10.7c-7.8,12.7-7.7,25.6,0.1,38.2c4.8,7.7,11.8,13.1,19.7,17.2c8.3,4.2,17.2,6.4,26.4,7.3    c12.9,1.3,25.3-0.8,37.2-5.9c9.4-4.1,17.4-10.1,23-19c4.2-6.8,6.2-14.3,5.2-22.3c-1.2-10.8-6.7-19.2-14.9-25.9    c-7.2-5.9-15.5-9.8-24.6-11.9c-1.3-0.3-2.6-0.7-4.4-1.1c1-0.4,1.6-0.6,2.1-0.8c4-1.3,7.9-3,11.5-5.3c11.9-7.4,20.6-17.3,23.7-31.4    c2.2-9.7,0.6-18.7-4.3-27.2c-0.3-0.5-0.5-1-0.9-1.7c2.7-0.2,4.6-1.4,5.6-3.9c1.3,2.9,3.5,4,6.3,3.9c0.1,0,0.1,0,0.2,0    c2,0.2,3.1,1.3,3.3,3.3c0.1,0.7,0,1.3-0.1,2c-0.8,6.8-1.5,13.6-2.4,20.3c-1.1,8.3-2.3,16.6-3.3,24.9c-0.5,4-1.2,8-1.1,11.9    c0.1,8.8,5.6,14.9,13.1,17.5c4.8,1.7,9.7,2,14.7,1c5.7-1.2,11.2-2.9,16-6.3c3.1-2.2,5.7-4.6,6.8-8.8c0.2,0.7,0.4,1,0.5,1.3    c1.8,6.5,6.2,10.5,12.3,12.7c4.8,1.7,9.7,2,14.7,1c6.2-1.3,12.2-3.2,17.3-7.2c2.9-2.3,5.2-4.8,5.6-8.7c-0.1-0.2-0.3-0.3-0.3-0.5    C574.1,195.8,572,194.6,569.4,194.3z M465.6,128.6c-3.4,0.6-6.6,1.1-9.6,3.2c0.7,0.8,1.2,1.5,1.7,2.1c6.1,6.9,8.8,14.9,8,24    c-0.7,8.3-4.2,15.4-9.6,21.6c-7.9,9.1-17.9,14.5-29.6,16.9c-0.9,0.2-1.9,0.3-2.8,0.5c-2.1,0.5-3.6,2.1-3.7,4    c-0.1,1.8,1.3,3.6,3.5,4.1c1.9,0.4,4,0.5,5.9,0.8c10.6,1.6,20.4,5.3,28.8,12c4.1,3.3,7.6,7.1,10,11.8c4.7,9.1,4.7,18.2,0,27.3    c-2.9,5.7-7.4,10.2-12.6,13.9c-7.2,5-15.2,8.1-23.7,9.6c-13.7,2.4-27.1,1.4-40-3.9c-8-3.3-15-8-20.3-15c-3.9-5.2-6.2-11-6.3-17.5    c-0.1-4.9,1-9.6,3.2-14c2.4-4.6,5.7-8.5,9.7-11.8c0.3-0.2,0.6-0.4,1.1-0.7c-0.2,0.5-0.3,0.7-0.4,0.9c-5.8,7.9-6.3,16.4-2.7,25.3    c2.8,7.1,8.3,11.8,15,15.1c7.2,3.6,14.9,4.5,22.7,4c6.2-0.4,12.1-2,17.6-5c2.8-1.6,5.3-3.5,7.5-5.9c7.8-8.4,7.4-20-0.9-27.9    c-4.9-4.7-11-7.3-17.5-8.8c-2.9-0.7-5.8-1-8.8-1.4c-3.7-0.4-6.8-1.7-8.4-5.3c-1.6-3.7-2-7.4,0.3-11c0.2-0.2,0.3-0.5,0.5-0.7    c0.1-0.2,0.2-0.4,0.5-0.8c-0.9-0.3-1.7-0.6-2.5-0.8c-7.3-2.4-13.6-6.4-18.2-12.6c-6.9-9.4-7.9-19.7-4.1-30.4    c3.5-9.8,10.2-17.1,19-22.6c10-6.2,20.8-8.8,32.5-7.9c4.2,0.3,8.2,1.2,12.1,2.8c1.6,0.7,3,0.6,4.7,0.1c4.8-1.7,9.8-2.5,14.9-1.7    c0.9,0.1,1.7,0.4,2.8,0.6C465.9,125.2,465.8,126.9,465.6,128.6z M527.6,168.5c-1.1,8.2-2.2,16.5-3.3,24.7c-0.2,1.2,0,2.5,0,3.8    c-0.1,0.1-0.3,0.2-0.4,0.3c-1.8-2.7-4.3-3.1-7.2-3c-2.4,0.1-3.1-0.7-2.9-3.1c0.3-3.8,0.8-7.5,1.3-11.3c1-7.7,2-15.5,2.9-23.2    c0.3-2.1,0.5-4.3,0.9-6.4c0.1-0.5,0.3-1.2,0.7-1.5c2.5-2.3,5-4.6,8.2-6.1c0.8-0.4,1.6-0.6,2.4-0.9c1,1,0.7,2.1,0.6,3.1    C529.8,152.7,528.7,160.6,527.6,168.5z M565.2,204.1c-4.7,3.2-9.9,5-15.5,5.8c-3.7,0.6-7.3,0.3-10.7-1c-6.6-2.4-10-8.1-9.1-15    c1.6-12.3,3.3-24.6,4.9-36.8c0.5-3.6,1-7.2,1.4-10.8c0.2-1.5,0.2-3,0-4.4c-0.4-3.9-2.9-6-6.9-5.4c-1.4,0.2-2.7,0.7-4,1.3    c-4.3,1.9-7.6,5.1-11,8.2c-0.5,0.5-0.8,1.4-0.9,2.2c-0.9,6.8-1.8,13.5-2.6,20.3c-0.8,6.4-1.6,12.8-2.4,19.2    c-0.2,1.3-0.3,2.7-0.3,4c0,5.1,2.7,8,7.8,8.4c0.8,0.1,1.6,0.1,2.7,0.1c-1,1.7-2.2,2.8-3.5,3.7c-4.7,3.4-10.1,5.2-15.8,6.1    c-3.8,0.6-7.4,0.3-10.9-1.1c-6.6-2.5-9.9-8.3-9-15.4c1.6-11.8,3.2-23.5,4.7-35.3c0.7-5.4,1.3-10.9,2-16.3c0.2-1.5,0.3-3,0.3-4.4    c-0.1-5-4-8.7-8.4-8.7c-0.4,0-0.9-0.1-1.4-0.1c0-1.5-0.1-2.9,0.1-4.2c0.1-0.5,0.8-1,1.3-1.3c2.8-1.3,5.8-1.9,8.8-2.2    c5.9-0.5,11.5,0.3,16.9,2.9c3.8,1.9,7,4.5,9.1,8.2c0.1,0.2,0.4,0.5,0.6,0.8c0.4-0.3,0.8-0.5,1.1-0.8c10-8,21.4-11.7,34.1-11.2    c3.5,0.1,6.9,1,10,2.8c4.9,2.7,7.4,6.7,6.7,12.5c-0.8,6.8-1.6,13.6-2.4,20.3c-0.9,7.7-1.9,15.3-2.9,23c-0.4,2.9-0.8,5.9-1.1,8.8    c-0.1,1.3-0.3,2.5-0.3,3.8c0,4.5,2.3,7.2,6.8,8c1.1,0.2,2.2,0.2,3.7,0.3C568,201.9,566.7,203.1,565.2,204.1z"></path>
		<path d="M282.4,230.4c-0.9,0.2-1.8,0.3-2.6,0.3c-2.8,0-4.7-1.5-5.1-4.2c-0.2-1-0.2-2.1-0.1-3.1c0.5-4.7,1-9.4,1.5-14.2    c0.8-7.2,1.6-14.5,2.4-21.7c0.8-7.4,1.7-14.9,2.5-22.3c0.8-7.3,1.6-14.6,2.4-21.9c0.8-7.4,1.7-14.9,2.5-22.3    c0.8-7.6,1.7-15.2,2.5-22.8c0.2-2.2,1.2-4.1,2.3-6c0.2-0.4,0.5-0.7,0.8-1.1c2.3-3.4,0.4-8-3.5-8.6c-0.9-0.1-1.8-0.2-2.7-0.2    c-7.2,0-14.4,0-21.6,0c-4.3,0-8.2,1.2-11.7,3.6c-7.4,4.9-12.1,12-15.6,19.9c-8.5,19.5-16.7,39-25,58.5c-0.2,0.5-0.5,1-0.8,1.6    c-0.1,0-0.2-0.1-0.3-0.1c1-7.5,1.9-15,2.9-22.5c1.9-14.8,3.7-29.6,5.5-44.4c0.3-2.7,1.2-5.2,2.9-7.3c0.2-0.2,0.4-0.5,0.5-0.7    c2.1-3.5,0-7.6-3.2-8.2c-1.1-0.2-2.2-0.4-3.3-0.4c-7.2,0-14.4,0-21.6,0c-1.1,0-2.2,0.1-3.3,0.3c-5.8,1-10.4,4.2-14.3,8.4    c-4.3,4.7-7.7,10.2-10.2,16.1c-15.7,36.9-31.3,73.7-47,110.6c-2.4,5.6-5.4,10.7-9.6,15.2c-2.8,3-5.8,5.6-9.6,7.1    c-4.2,1.7-8.4,1.6-12.6-0.1c-3.7-1.5-4.7-4.1-3.3-7.9c0.3-0.9,0.6-1.8,0.9-2.7c1.1-4-2.5-7.7-6.6-6.6c-8.1,2.2-14.1,7.1-17.4,14.7    c-3.5,8.2-2.9,16.3,2.5,23.6c6.8,9.2,16.3,12.9,27.6,12.2c2.9-0.2,5.7-0.9,8.5-1.5c10.3-2.3,19.1-7.3,26.3-15    c5.6-5.9,9.5-12.9,12.7-20.3c8.3-19.5,16.5-38.9,24.8-58.4c0.2-0.6,0.6-1.1,1-1.8c0.1,0.3,0.2,0.4,0.2,0.4    c-0.9,8.1-1.7,16.2-2.8,24.3c-0.7,5.4-1,10.6,0.7,15.9c2.9,8.9,8.7,14.8,17.7,17.5c5.4,1.7,10.8,1.6,16.2,0    c8.6-2.5,15.1-7.5,19.2-15.4c1-1.9,1.7-4,2.5-5.9c5.2-12.2,10.3-24.3,15.5-36.5c0.2-0.5,0.5-1,0.7-1.5c0.1,0,0.3,0.1,0.4,0.1    c-0.1,1.1-0.1,2.1-0.2,3.2c-0.8,8.1-1.7,16.2-2.5,24.4c-0.8,8-1.7,15.9-2.5,23.9c-0.3,2.5-0.7,5-0.2,7.5    c1.3,7.1,4.3,13.1,10.1,17.5c7.3,5.5,15.5,7.5,24.6,5.9c6-1,11.7-2.7,16.7-6.3c5-3.5,7.7-8.3,8.6-14.3    C289.7,232.8,286.5,229.7,282.4,230.4z M282.9,239.4c-1.3,3.5-3.6,6.1-6.7,8.1c-4.5,2.9-9.6,4.3-14.9,4.9    c-5.9,0.7-11.4-0.4-16.4-3.6c-5.7-3.6-9.3-8.8-10.1-15.5c-0.3-2.6,0.2-5.3,0.4-8c0.6-6.4,1.4-12.7,2-19c0.9-8.2,1.7-16.4,2.5-24.6    c0.6-5.9,1.2-11.8,1.8-17.7c0.8-7.5,1.5-15.1,2.3-23c-0.5,0.6-0.9,0.9-1.1,1.3c-1.1,2.1-2.4,4.1-3.3,6.3    c-8.7,20.3-17.3,40.5-25.9,60.8c-0.6,1.3-1,2.6-1.5,3.9c-3.6,9.4-10.5,14.8-20.2,16.4c-6.6,1.1-12.7-0.4-17.9-4.9    c-4.6-4-7.1-9.2-7.1-15.3c0-4.4,0.6-8.9,1.1-13.3c0.8-7.2,1.6-14.3,2.5-21.5c1-8.4,1.9-16.8,2.9-25.2c0.3-2.7,0.6-5.4,0.9-8.1    c-1.8,2-3.2,4.3-4.2,6.7c-9.5,22.3-18.9,44.5-28.4,66.8c-2.8,6.5-5.4,13-8.3,19.5c-2.5,5.7-5.3,11.1-9.3,15.9    c-8,9.8-18.5,15.1-30.8,17c-6.1,1-11.8,0.2-17.3-2.7c-2.9-1.6-5.4-3.6-7.5-6.2c-5.2-6.6-5.4-15.3-0.6-22.2c2.7-3.8,6.2-6.3,10.5-8    c0.2-0.1,0.4-0.1,0.6-0.1c0.1,0,0.1,0.1,0.2,0.1c-0.4,1.7-0.9,3.4-1.2,5.1c-0.7,4.4,1,7.8,4.6,10.3c2.1,1.4,4.4,2.5,6.9,2.9    c4.1,0.6,8.2,0.7,12-1c3.8-1.7,7.3-4,10.2-7c5.4-5.3,9.3-11.5,12.3-18.4c15.5-36.3,30.9-72.6,46.3-109c2.2-5.1,4.7-10.1,8.3-14.4    c2.1-2.5,4.4-4.8,7.2-6.5c2.6-1.6,5.4-2.4,8.5-2.4c6.8,0,13.5,0,20.3,0c0.6,0,1.3,0,1.9,0c0,0.3,0.1,0.5,0.1,0.6    c-2.6,3.5-3.5,7.6-4,11.9c-1.4,11.6-2.9,23.3-4.4,34.9c-1.3,10-2.5,20-3.7,30c-1.1,8.8-2.2,17.5-3.4,26.3c0,0.2-0.1,0.4-0.1,0.7    c-0.1,1.2,0.4,1.9,1.4,2.2c1,0.3,1.8-0.2,2.3-1c0.4-0.7,0.8-1.4,1.1-2.2c11.3-26.6,22.7-53.2,34-79.9c2.2-5.1,4.6-10.2,8.2-14.5    c1.6-1.9,3.3-3.6,5.2-5.2c3.2-2.7,7-4,11.3-4c6.5,0.1,12.9,0,19.4,0c0.7,0,1.5,0,2.2,0c0,0.4,0.1,0.6,0,0.8    c-2.8,3.7-3.5,8.1-4,12.5c-0.9,9.2-2,18.4-3,27.7c-1,8.7-1.9,17.4-2.8,26.1c-1.1,10-2.3,20.1-3.4,30.1c-1,8.7-1.9,17.4-2.9,26.1    c-0.4,3.3-0.8,6.6-1.1,10c-0.3,2.5-0.5,5,0.2,7.5c1.6,5.3,6.2,8.4,11.7,7.7c0.7-0.1,1.5-0.2,2.3-0.3    C283.9,237.2,283.3,238.3,282.9,239.4z"></path>
		<path d="M764,183.6c-0.7-4-2.3-7.6-4.7-10.9c-3.9-5.4-8.8-9.7-13.9-13.7c-3.6-2.8-7.3-5.4-10.7-8.4c-2.4-2-4.6-4.3-6.4-6.7    c-2.4-3.2-1.9-5.3,1.3-7.8c0.3-0.2,0.6-0.4,0.9-0.6c3-2,6.4-2.2,9.9-1.9c4.7,0.4,8.9,2,13.1,4c1.1,0.5,2.2,0.9,3.3,1.1    c2.7,0.4,5.3-1.3,5.9-3.9c0.4-1.7,0.7-3.5,0.9-5.3c0.3-2.4-0.5-4.4-2.7-5.7c-2.2-1.3-4.5-2.7-6.9-3.6c-18.5-7.4-37.2-7.7-56-1.4    c-8.4,2.8-15.1,8.2-19.4,16.1c-2.2,3.9-3.1,8.2-2.2,12.7c0.7,3.8,2.2,7.3,4.5,10.6c3.9,5.5,8.9,9.9,14.3,13.9    c3.8,2.8,7.5,5.6,11.1,8.5c2.4,1.9,4.1,4.5,5.2,7.4c0.5,1.3,0.4,2.6-0.4,3.8c-1.6,2.2-3.7,3.6-6.4,4c-3.3,0.4-6.5,0.2-9.7-0.7    c-4.4-1.1-8.6-2.8-12.5-5.2c-3.8-2.3-8.2-0.3-8.8,3.6c0,0.3-0.2,0.7-0.3,1c-1.4-0.1-2.6-0.3-3.9-0.3c-3.7,0.1-4.3-0.6-3.9-4.3    c0-0.1,0.1-0.3,0.1-0.4c0.9-7.5,1.7-15,2.7-22.5c1.2-9.6,2.5-19.3,3.5-28.9c0.8-7-1.4-13.1-7.2-17.4c-5.5-4.2-11.9-5.3-18.6-4.4    c-2.8,0.4-5.5,1.2-8.2,2c-4.4,1.3-8.4,3.4-11.9,6.4c-1.8,1.5-2.4,3.5-1.8,5.8c0.5,2.3,2,3.6,4.3,4c0.2,0,0.4,0.1,0.7,0.1    c2.4,0.6,3.3,1.7,3.2,4.1c0,1-0.1,2.1-0.3,3.1c-0.8,6.6-1.6,13.1-2.3,19.7c-0.8,6.6-1.6,13.3-2.4,19.9c-0.1,0.7-0.4,1.6-1,2.1    c-1.4,1.4-2.9,2.7-4.5,3.9c-1.8,1.3-3.7,2.5-6,2.9c-0.8-1.2-0.5-2.3-0.4-3.5c0.3-2.4,0.7-4.9,1-7.3c1.7-13.3,3.3-26.5,5-39.8    c1.1-8.2-1.4-14.8-8.4-19.4c-5.3-3.4-11.1-4.5-17.3-3.6c-2.8,0.4-5.7,1.2-8.4,2c-4.2,1.2-8,3.2-11.4,6c-1.9,1.6-2.8,3.5-2.3,6.1    c0.5,2.5,2.2,3.8,4.6,4.2c0.4,0.1,0.7,0.2,1.1,0.3c1.5,0.5,2.3,1.6,2.4,3.1c0.1,0.9,0,1.8-0.1,2.7c-0.3,3.2-0.7,6.5-1.1,9.7    c-0.9,7.6-1.8,15.2-2.7,22.8c-1,8.9-1.9,17.9-2.8,26.8c0,0,0-0.1,0-0.1c0.3,0.8,0.6,1.7,0.8,2.5c0.9,3.7,3,6.6,5.9,8.9    c4.8,3.9,10.5,5.1,16.4,5.5c5.5,0.4,10.9-0.7,16.3-2.1c5.4-1.4,10.5-3.6,15.2-6.5c0.2,0.1,0.4,0.2,0.5,0.3    c4.4,4.8,10.1,6.8,16.5,7.2c5.1,0.3,10-1.1,14.8-2.7c5.1-1.8,9.6-4.6,13.2-8.7c0.3,0.1,0.5,0.2,0.7,0.3    c14.8,9,30.8,13.5,48.2,11.7c11.7-1.2,22.3-5.5,31.5-12.8c2.5-2,4.5-4.3,6.2-7C763.8,192.7,764.8,188.3,764,183.6z M669.3,202    c-2,1.5-4,3.1-6.2,4.3c-4.3,2.3-9,3.6-13.8,4c-3.4,0.3-6.7-0.3-9.8-1.7c-3.7-1.7-6.3-4.4-7.7-8.4c-0.5,0.3-0.9,0.5-1.2,0.7    c-8.8,6.7-18.7,10.1-29.7,10.6c-4.2,0.2-8.3-0.4-12.1-2.3c-3.2-1.5-5.7-3.7-7.1-7c-0.8-1.9-0.8-3.9-0.6-5.9    c0.6-5.5,1.2-11.1,1.8-16.6c0.9-7.6,1.8-15.2,2.7-22.8c0.6-5.5,1.1-11.1,1.9-16.6c0.7-5.6-2.7-10.3-7.5-10.9    c-0.1,0-0.2-0.1-0.5-0.3c0.5-0.4,0.9-0.8,1.3-1.1c6.5-4.3,13.6-6.6,21.5-5.9c3.2,0.3,6.2,1.4,8.8,3.5c4,3.2,5.7,7.3,5,12.4    c-1.2,9.6-2.4,19.1-3.6,28.7c-0.8,6.2-1.6,12.4-2.3,18.5c-0.2,1.8-0.3,3.6,0,5.3c0.5,3.7,3,5.7,6.7,5.1c1.8-0.3,3.6-1,5.2-1.8    c3.8-1.9,6.8-4.8,9.8-7.7c0.6-0.5,0.9-1.5,1-2.4c0.7-5.4,1.4-10.9,2-16.4c1.1-8.9,2.1-17.8,3.2-26.7c0.2-1.9,0.4-3.7-0.3-5.5    c-1-2.8-2.9-4.8-5.8-5.7c-0.6-0.2-1.1-0.3-1.9-0.6c0.6-0.5,1.1-1,1.6-1.4c6.4-4.1,13.4-6.4,21.1-5.8c2.6,0.2,4.9,1,7.2,2.2    c5.1,2.9,7.6,8,6.8,14.1c-2,16.5-4.1,33-6.1,49.5c-0.2,1.8-0.3,3.6-0.2,5.3c0.3,3.8,2.4,6.1,6.2,6.8c1.3,0.3,2.6,0.3,4.3,0.4    C670.3,200.8,669.9,201.6,669.3,202z M754,197c-1.9,1.9-4.1,3.7-6.4,5.1c-11.5,7.4-24.2,10.3-37.8,8.8    c-10.5-1.1-20.2-4.5-29.4-9.6c-0.6-0.3-1.1-0.7-1.7-1.1c0.2-1.8,0.4-3.6,0.6-5.7c0.9,0.5,1.5,0.8,2.2,1.2    c7.1,3.7,14.5,6.2,22.6,5.8c3.6-0.2,6.8-1.5,9.5-3.9c4.2-3.8,5.1-8.1,2.7-13.2c-1.6-3.5-4-6.4-7-8.8c-4-3-8-6.1-12-9.2    c-3.9-3-7.6-6.2-10.6-10.1c-1.7-2.2-3.2-4.7-4-7.4c-1.3-4-0.9-7.8,1.1-11.4c2.9-5.1,7-9,12.2-11.7c5.6-2.9,11.6-4.4,17.9-5.1    c6.5-0.7,13-0.9,19.6-0.2c8,0.9,15.6,3,22.7,6.8c0.7,0.4,1.4,0.8,2.2,1.3c-0.2,1.5-0.5,2.9-0.7,4.6c-0.8-0.3-1.4-0.6-2-0.9    c-5.2-2.5-10.6-4.2-16.4-4.4c-4.4-0.2-8.6,0.7-12.2,3.3c-0.7,0.5-1.5,1-2.1,1.7c-4.2,4.1-4.8,8.6-1.6,13.4    c1.5,2.3,3.3,4.4,5.3,6.2c3.6,3.2,7.5,6.1,11.2,9.1c3.6,2.9,7.1,5.8,10.5,8.9c2.5,2.2,4.5,4.9,6.2,7.8    C760.1,185.2,759.4,191.5,754,197z"></path>
		<path d="M377,202.3c1.3-2.1,1.4-4.2,0.3-6.3c-1.1-2.1-3.1-2.9-5.4-2.7c-4.3,0.4-4.7-1.1-4.2-4.8c0.7-5,1.3-10,1.9-15    c1.3-10,2.6-20,3.9-30c0.2-1.8,0.3-3.7,0-5.5c-0.8-5.6-4-9.8-8.4-13.2c-6.7-5.1-14.4-7.1-22.6-8c-6.8-0.7-13.5,0.4-20,2.3    c-6,1.8-11.3,4.9-15.8,9.2c-1.7,1.6-2.9,3.5-3.2,5.9c-0.3,2.6-0.9,5.1-1,7.7c-0.2,3.5,1.7,6.2,5.3,6.4c2,0.1,3.6-0.6,4.8-2.2    c2.4-3,5.6-4.6,9.3-5.2c3.2-0.5,6.4-0.4,9.3,1.3c1.4,0.8,2.6,1.9,2.7,3.9c-0.8,0.2-1.4,0.3-2,0.4c-9.5,1.7-18.7,4.2-27.2,8.9    c-7.8,4.3-14.7,9.5-19.8,16.9c-3.1,4.5-5,9.5-5.3,14.9c-0.6,9,3.1,16.3,9.9,22.1c4.5,3.9,10,5.7,15.7,7c5.3,1.1,10.6,1.5,15.9,0.6    c5.5-0.9,10.9-2.4,15.8-5.3c4.7,2.2,9.5,3.5,14.6,3c6.2-0.6,12.3-2.2,17.7-5.4C372.3,207.4,375.1,205.4,377,202.3z M347.1,209    c-3.7-0.3-6.9-1.7-9.8-4c-0.7,0.4-1.3,0.8-1.9,1.1c-11.5,6.8-23.6,7.5-35.9,2.7c-7.1-2.7-11.9-7.9-13.8-15.5    c-1.3-5.4-0.2-10.5,2.4-15.3c2.7-5.1,6.7-9.1,11.2-12.5c8.3-6.2,17.6-10.1,27.6-12.4c2.5-0.6,4.9-1.1,7.4-1.3    c3.3-0.3,5.4-2.4,5.2-6.4c-0.2-2.9-1.6-5.2-3.9-7c-3.5-2.7-7.5-3.6-11.7-3.4c-5.8,0.3-10.9,2.2-14.9,6.6c-0.2,0.2-0.4,0.3-0.9,0.6    c0.3-2.8,0.5-5.3,1-7.7c0.2-0.9,0.9-1.7,1.6-2.3c4-4,8.9-6.6,14.4-8.2c10.3-3.1,20.5-2.7,30.5,1.5c3.5,1.4,6.6,3.4,9.1,6.3    c2.6,2.9,3.9,6.3,3.3,10.2c-1,7.7-2,15.4-3,23.2c-1,7.9-2.1,15.7-3,23.6c-0.7,6.7,2.4,10,9.2,9.9c0.3,0,0.6,0,1.2,0    c-1,2-2.4,3.2-3.8,4.2C362.1,207.3,355,209.6,347.1,209z"></path>
		<path d="M432.3,137.3c-3.2-3.3-7.2-4.1-11.4-2.2c-1.2,0.5-2.4,1.2-3.4,2.1c-1.8,1.8-3.7,3.6-5.1,5.8c-5.2,8-7.2,16.8-6.2,26.3    c0.3,3.2,1.2,6.2,2.8,9.1c4.1,7.3,11,8.7,17.4,3.2c1.8-1.6,3.5-3.5,4.8-5.5c4.4-6.6,6.4-13.9,6.6-22.8c-0.1-1.2-0.2-3.4-0.6-5.5    C436.5,143.9,435.2,140.2,432.3,137.3z M427.5,171.5c-1.2,2-2.9,3.8-4.4,5.5c-0.6,0.7-1.5,1.2-2.4,1.6c-2,1-3.5,0.7-5.1-0.8    c-2.1-2.2-3.2-5-3.7-8c-1.3-8.2,0.2-15.8,4.5-22.9c1.2-1.9,2.9-3.6,4.4-5.3c0.5-0.6,1.3-1,2-1.4c2.2-1.1,4-0.8,5.6,1.1    c2,2.4,3,5.3,3.5,8.3c0.2,1.5,0.2,3.1,0.3,4.7C432.4,160.5,430.7,166.3,427.5,171.5z"></path>
		<path d="M334.5,161.6c-9.7,2.8-16.3,9-19.7,18.4c-2.8,7.5,1.1,14.6,8.5,16.3c1.2,0.3,2.5,0.3,3.2,0.4c5.1,0.1,6.3-0.9,7-5.4    c0-0.2,0-0.4,0.1-0.7c0.8-6.2,1.7-12.3,2.5-18.5c0.4-2.8,0.8-5.6,1.1-8.4C337.2,161.7,336.4,161,334.5,161.6z M327.8,190.8    c-5.7,1-9.7-3.3-7.9-8.7c1.8-5.4,5.4-9.4,10.2-12.5c0.1-0.1,0.3,0,0.6,0C329.7,176.6,328.8,183.7,327.8,190.8z"></path>
	</g>
</g>
<g id="Layer_2">
</g>
<g id="Layer_4">
	<rect x="44.2" y="37.2" class="st4" width="763.2" height="289.9"></rect>
	<rect x="44.2" y="37.2" class="st4" width="763.2" height="289.9"></rect>
	<path class="st4" d="M319.5,186.9c0,0-0.4-1.8,0.1-3.8c0.6-1.9,3.1-8.9,11.1-13.4l-2.9,21.9h-3.3   C324.6,191.7,320.9,191.2,319.5,186.9 M338.3,117c-15.9,0.9-21.6,4.9-25.8,7.4c-4.2,2.6-7.7,6.1-8.1,7.5c-0.4,1.4-1.7,8.1-1.8,10.9   c-0.2,2.8,2.1,6.3,5.5,6.1c3.4-0.2,3.7-1.4,4.5-2.4c0.8-1,2.5-2.4,2.5-2.4c4.1-3.3,9.6-3.1,9.6-3.1c9.7,0.3,9.3,5.7,9.3,5.7   c-23.9,4.1-31.2,10.7-36.7,13.9c-5.5,3.3-18.3,15.1-17.8,29.3c0.5,14.3,11.1,20.8,11.1,20.8c10.7,7.6,24.3,7.1,24.3,7.1   c13.4-0.1,22.2-5.9,22.2-5.9c4.5,2.7,9.4,3.1,12.1,3.2c2.7,0.1,8.4,0.2,18.7-4.7c10.3-4.9,10.1-10.9,10.1-10.9   c0.1-4.5-3.9-5.5-4.6-5.6c-0.3-0.1-0.8-0.1-1.5,0c-0.9,0-2,0.1-3.2-0.1c-2.2-0.3-1.1-5.6-1.1-5.6l2.8-22.4l3.1-24.8   c0.4-7.5-5.6-13.2-5.6-13.2C357.2,117.2,339.8,117,338.3,117L338.3,117z M724.4,115.6c-12.5,0-22.5,2.5-28.2,4.9   c-7.4,3.1-20,12.8-19.7,24.5c0.3,11.8,9.4,19.7,13.7,23.5c4.3,3.8,13.5,10,17.5,14.1c4,4.1,4.3,7,4.3,7.9c0,0.9-0.4,1.7-1.8,3.3   c-1.3,1.6-2.8,2.8-8.2,3c-5.4,0.2-10.9-2-12.9-2.8c-2-0.8-6.5-3.4-7.2-3.8c-0.7-0.4-2.6-0.6-2.6-0.6c-4.9,0.3-5.3,4.3-5.5,5.1   c-0.1,0.8-0.8,0.7-0.8,0.7c-1.6-0.7-4.2-0.5-4.2-0.5c-4.2,0.3-2.9-5.4-2.9-5.4s6.1-47.5,6.2-48.5c0.2-1.1,0.4-4.6,0.4-4.6   c0.3-14.6-12.9-20.4-22.3-20.1c-9.4,0.3-17.5,4.3-21.8,7c-4.2,2.7-4,5.9-4,5.9c0.6,4,1.8,4.5,5.3,5.4c3.5,0.9,3,4.6,3,4.6   s-5.2,41.3-5.2,42.3c0,1.1-0.6,1.7-0.6,1.7c-5.8,5.7-9,6.6-10.8,7.1c-1.8,0.5-0.8-4.3-0.8-4.3s5.2-39.1,5.8-43   c0.6-3.9,0.7-7.3,0.7-7.3c-0.6-19.7-21.9-19.6-21.9-19.6c-9.2,0.2-17.7,4.1-21.1,6.4c-3.5,2.3-5.1,4.3-5,6.6   c0.1,2.3,1.1,4.4,5.2,5.4c4.2,0.9,3.2,5.2,3.2,5.2s-6.5,51.8-6.8,54.4c-0.3,2.6-0.1,6.2-0.1,6.2c3.1,17.6,24.8,16.7,24.8,16.7   c17.7-0.6,28.3-7.8,29-8.4c0.7-0.6,0.8,0.2,0.8,0.2c7.7,8.5,17.6,7.5,17.6,7.5c19.1-0.9,26.3-10.7,26.6-11.2   c0.3-0.6,0.7-0.1,0.7-0.1c10.8,7.5,25.5,11.8,35.9,12.5c10.4,0.7,18.9,0.9,35.2-6.9c16.3-7.8,17.9-17.7,18.3-21.6   c0.4-3.8-1.4-8.6-1.4-8.6c-2.3-7.2-11.3-16.1-18.6-21.3c-7.4-5.2-13.4-10.9-15.4-13.6c-2-2.6-1.9-4.3-1.9-4.3   c1.4-4.4,5.3-6.3,10.8-6.8c5.4-0.4,12.2,2,13.4,2.7c1.2,0.7,4.2,2.2,4.2,2.2c6.5,2,7.7-2.8,7.7-2.8s0.7-2,1.2-5.8   c0.6-3.8-1.7-5-1.7-5c-10.5-7.9-26.7-9.7-26.7-9.7C731.7,115.8,728,115.6,724.4,115.6C724.4,115.6,724.4,115.6,724.4,115.6    M414.3,176.9c-5.8-10.5-1.8-23.9,2.8-30.5c4.6-6.6,8.1-6.3,8.1-6.3c7.4,0.9,7.1,14.8,7.1,14.8c0.1,4.1-0.8,7.5-0.8,7.5   c-3.6,13.6-9.9,17.5-12.8,17.5h-0.1C415.9,179.8,414.3,176.9,414.3,176.9 M545.8,115.5c-19,1-29.7,8.9-30.6,9.6   c-0.9,0.7-1.2-0.1-1.2-0.1c-6.4-7.7-19.8-9.4-23.7-9.4c-4-0.1-9.4,1.2-13.5,2.5c-4.2,1.3-5,3.8-5.1,4.6c-0.1,0.7-0.4,0-0.4,0   c-0.2-3.2-4.8-4.9-11-5c-6.2-0.1-13.1,2.1-13.6,2.4c-0.4,0.3-0.8,0-0.8,0c-9.6-3.8-18.8-3.6-18.8-3.6c-9.1,0.4-15.1,2.2-15.1,2.2   c-15.7,3.7-26.3,14.2-31.4,21.4c-5.1,7.3-11.3,20.3-6,36.7c5.3,16.4,21.1,22.3,22.1,22.8c0.9,0.4,0.3,1.3,0.3,1.3   c-0.8,4.5,0.1,8.6,3.2,13.4c3.1,4.7,8.4,5.4,9.9,5.6c1.4,0.2,3.5,0.3,3.5,0.3c21.7,3.3,25.5,14.2,25.6,17.4c0.2,3.2,0,8-6.2,13.2   c-6.2,5.2-12.2,6.6-21.8,7.3c-9.6,0.6-16.7-3.1-16.7-3.1c-10.1-4.7-14.9-12.6-14.9-20.4c0-7.8,2.7-10.6,2.7-10.6   c3.5-3.6,2.9-5.6,2.9-5.6c0.3-5.7-5.8-5.6-5.8-5.6c-5.2,0.2-12.9,10.1-16,16.1c-3.1,6-3.6,14.9-3.6,14.9   c0.2,17.6,12.3,27.2,12.3,27.2c18.6,18.2,46.7,17,46.7,17c23-0.2,36.6-9.5,36.6-9.5c23.5-13.7,22.1-34.1,22.1-34.1   s1.4-13.5-12.1-26.8c-13.5-13.3-31.3-15.5-32.3-15.6c-0.9-0.2,0.1-0.5,0.1-0.5c14-4.1,19.6-9.6,26.5-16.4   c6.9-6.8,11.6-17.2,11.8-28.9c0.2-11.7-5.7-20.3-6.3-20.7c-0.6-0.4,1-0.6,1-0.6c3.9-0.4,4.6-3.4,4.7-4.2c0.1-0.8,0.4,0.1,0.4,0.1   c0.5,4.1,5.7,4.1,5.7,4.1c5.5,0.2,4,5.7,4,5.7s-6.2,48-6.6,50.7c-0.4,2.6-0.6,6.6-0.6,6.6c1.8,19.4,21.8,18.9,21.8,18.9   c12-0.6,19.4-5.2,19.4-5.2c10.2-5.6,9-11,9-11c-0.1-4.9-3.7-5.2-7.3-5.1c-3.6,0.1-3.1-2.4-3.1-2.4s4.8-39.8,5-41.4   c0.2-1.6,0.7-1.8,0.7-1.8c5-4.7,8.9-6.5,9.6-6.8c0.8-0.3,1.7-0.5,1.8,0.2c0.2,0.7-0.1,3.8-0.1,3.8s-5.2,39.4-5.7,42.9   c-0.5,3.5-0.7,7.9-0.7,7.9c1.1,19.2,22.2,19,22.2,19c18.7-1.3,28.2-10.8,28.2-15.8c-0.1-5.1-3.9-5.7-7.7-5.5   c-3.8,0.3-2.9-4.1-2.9-4.1l5.3-42.7c0,0,1.2-7.8,1.4-13.7c0.3-5.9-3.8-10.8-3.8-10.8C560.1,115.5,546.1,115.5,545.8,115.5   L545.8,115.5z M235.8,107.9l-7.9,18.2l-14.5,34.2l-3.5,7.9l5.6-43.7c0,0,3-23.7,3.3-26.3c0.3-2.6,2.2-5.4,3.1-6.6   c0.9-1.2,0.9-3.1,0.9-3.1c-0.1-5.1-5.6-5.5-5.6-5.5h-23.9c-2.3,0.1-7.8,0.9-14.3,6.2c-6.5,5.3-11.6,15.6-11.6,15.6l-5.3,12.3   l-13.8,32.6l-16.2,38.1c0,0-7.6,18-11.6,27.5c-4,9.5-7,13.6-7,13.6C104.8,241,98,241.8,94,242c-4.1,0.2-7.2-1.2-9.1-3   c-1.9-1.7-1.3-5.6-0.8-6.6c0.5-1,0.6-1.7,1.1-3.6c0.5-2-1.3-4-1.3-4c-1.8-2-4.3-1.7-4.3-1.7C63.1,227.4,59,240.6,59,248   c-0.1,7.4,3.8,12.6,3.8,12.6c11,14.5,23.6,14.8,38.9,11.1c15.3-3.7,22.9-12.9,27.7-18.6c4.8-5.7,8.2-13.9,8.2-13.9l7.8-18.4   l19.4-45.7c0,0-2.8,24.4-3.2,27.1c-0.3,2.7-0.6,6.6-0.2,11c0.4,4.4,3.3,13.9,12.1,19c8.7,5.1,17.8,5.1,26.4,1.8   c8.6-3.3,13.7-10.9,15-12.9c1.3-2,2.7-6.5,2.7-6.5l17.4-41.1c0,0-2.2,20.5-2.6,25c-0.4,4.5-1.9,20.4-2.3,23.4   c-0.4,3-1.2,10.2-1.2,10.2c0.6,10,5.8,15.7,5.8,15.7c9.5,11.7,23.3,10.9,23.3,10.9c14.6-0.8,19.3-4.4,25.2-9.3   c5.9-4.9,5.8-12.5,5.8-12.5c-0.2-6.4-5.8-5.8-5.8-5.8c-1.3,0.4-3.6,0.6-3.6,0.6c-4.2-0.1-5.3-4.1-5.3-5.6c-0.1-1.6,0.3-4.5,0.3-4.5   l4.5-40.3c0,0,8.6-78.3,9.2-82.5c0.6-4.2,3-6.8,3.5-7.5c0.6-0.8,0.5-2.5,0.5-2.5c-0.3-5.8-5.4-5.6-5.4-5.6L261.8,83   C244.7,84.7,235.8,107.9,235.8,107.9"></path>
</g>
</svg>